<svg width="1140" height="1140" viewBox="0 0 1140 1140" fill="none" xmlns="http://www.w3.org/2000/svg">
<path d="M582.541 666.03C576.896 666.728 572.294 671.288 572.294 676.976V743.023C572.294 748.76 576.962 753.436 582.688 753.081C612.493 751.23 640.862 741.973 665.655 726.197C670.489 723.121 671.509 716.603 668.141 711.967L629.256 658.45C625.91 653.845 619.5 652.863 614.521 655.621C604.821 660.995 594.015 664.61 582.541 666.03Z" fill="#9D84B6"/>
<path d="M582.621 842.86C576.916 843.092 572.293 847.704 572.293 853.414V919.434C572.293 925.163 576.946 929.82 582.672 929.644C626.311 928.307 668.641 919.083 708.653 902.172C730.096 893.11 750.416 882.046 769.473 869.078C774.206 865.857 775.228 859.361 771.863 854.729L733.05 801.304C729.69 796.679 723.229 795.669 718.473 798.841C678.338 825.614 631.676 840.862 582.621 842.86Z" fill="#BDA7D3"/>
<path d="M582.603 754.558C576.909 754.906 572.293 759.505 572.293 765.209V831.229C572.293 836.961 576.95 841.624 582.677 841.388C631.39 839.384 677.731 824.242 717.591 797.663C722.354 794.487 723.372 787.987 720.008 783.356L681.186 729.918C677.828 725.297 671.38 724.294 666.564 727.364C641.485 743.35 612.771 752.716 582.603 754.558Z" fill="#AC91C8"/>
<path d="M709.223 903.525C709.225 903.526 709.224 903.529 709.222 903.53C669.014 920.519 626.481 929.779 582.63 931.112C576.92 931.286 572.293 935.904 572.293 941.617V1007.63C572.293 1013.35 576.942 1018.01 582.668 1017.87C638.222 1016.51 692.105 1004.94 742.997 983.438C770.673 971.743 796.857 957.375 821.352 940.478C826.064 937.228 827.086 930.735 823.721 926.105L784.899 872.674C781.539 868.05 775.077 867.035 770.353 870.251C751.197 883.291 730.776 894.415 709.224 903.519C709.222 903.52 709.221 903.523 709.223 903.525V903.525Z" fill="#C7B5DA"/>
<path d="M528.597 655.625C523.617 652.865 517.205 653.847 513.858 658.453L474.975 711.967C471.607 716.603 472.627 723.121 477.462 726.197C502.254 741.973 530.623 751.23 560.428 753.081C566.154 753.436 570.822 748.76 570.822 743.023V676.976C570.822 671.288 566.22 666.728 560.575 666.031C549.099 664.613 538.296 661.001 528.597 655.625Z" fill="#795A97"/>
<path d="M476.553 727.364C471.737 724.294 465.288 725.297 461.931 729.918L423.11 783.355C419.746 787.986 420.765 794.487 425.528 797.662C465.394 824.237 511.728 839.383 560.439 841.388C566.166 841.624 570.823 836.961 570.823 831.229V765.209C570.823 759.505 566.208 754.906 560.514 754.558C530.346 752.716 501.632 743.35 476.553 727.364Z" fill="#8563A6"/>
<path d="M424.643 798.841C419.887 795.669 413.426 796.679 410.066 801.304L371.254 854.727C367.889 859.36 368.912 865.857 373.646 869.078C392.708 882.046 413.027 893.11 434.463 902.172C474.476 919.083 516.805 928.307 560.445 929.644C566.171 929.82 570.823 925.163 570.823 919.434V853.414C570.823 847.704 566.201 843.092 560.496 842.86C511.441 840.862 464.779 825.614 424.643 798.841Z" fill="#9D82B8"/>
<path d="M433.886 903.528C433.888 903.527 433.887 903.524 433.885 903.523C412.333 894.413 391.912 883.293 372.756 870.255C368.031 867.039 361.57 868.054 358.21 872.678L319.388 926.108C316.023 930.739 317.046 937.232 321.758 940.482C346.258 957.379 372.435 971.747 400.112 983.442C451.004 1004.95 504.887 1016.51 560.441 1017.87C566.166 1018.01 570.815 1013.36 570.815 1007.63V941.621C570.815 935.908 566.189 931.29 560.479 931.116C516.628 929.783 474.095 920.523 433.887 903.534C433.885 903.533 433.884 903.53 433.886 903.528V903.528Z" fill="#AD96C3"/>
<path d="M491.026 615.49C488.608 610.345 482.85 607.381 477.443 609.138L414.516 629.587C409.065 631.359 406.059 637.234 408.168 642.564C416.879 664.583 430.087 684.785 447.323 702.021C451.225 705.923 455.28 709.616 459.475 713.099C463.894 716.767 470.428 715.732 473.803 711.085L512.685 657.567C516.024 652.971 514.989 646.582 510.84 642.7C502.626 635.012 495.866 625.789 491.026 615.49Z" fill="#2D56B2"/>
<path d="M383.903 765.433C383.904 765.433 383.905 765.431 383.904 765.43C356.479 738.006 335.81 705.621 322.715 670.283C320.729 664.923 314.91 661.944 309.474 663.711L246.716 684.102C241.268 685.873 238.276 691.735 240.215 697.125C242.363 703.092 244.675 709.01 247.157 714.877C264.876 756.805 290.246 794.448 322.561 826.771C333.046 837.256 344.093 847.005 355.664 856.004C360.19 859.523 366.698 858.493 370.068 853.854L408.889 800.417C412.241 795.804 411.219 789.365 406.754 785.818C398.813 779.511 391.181 772.715 383.902 765.436C383.901 765.435 383.901 765.433 383.903 765.433V765.433Z" fill="#5A7FD0"/>
<path d="M446.292 703.054C446.29 703.056 446.286 703.056 446.284 703.054C428.867 685.636 415.533 665.219 406.749 642.961C404.653 637.65 398.849 634.674 393.419 636.438L330.588 656.852C325.142 658.621 322.145 664.481 324.136 669.85C337.159 704.96 357.707 737.138 384.957 764.388C392.158 771.588 399.707 778.314 407.563 784.563C412.055 788.136 418.576 787.106 421.95 782.462L460.768 729.029C464.117 724.419 463.093 717.993 458.705 714.358C454.42 710.808 450.28 707.039 446.299 703.054C446.297 703.052 446.294 703.052 446.292 703.054V703.054Z" fill="#315FC4"/>
<path d="M321.532 827.806C289.077 795.351 263.605 757.553 245.812 715.449C243.31 709.528 240.978 703.555 238.814 697.536C236.881 692.162 231.06 689.192 225.629 690.957L162.814 711.368C157.366 713.138 154.377 718.997 156.283 724.399C159.228 732.749 162.429 741.026 165.895 749.226C188.053 801.657 219.78 848.737 260.194 889.151C273.973 902.93 288.523 915.695 303.799 927.415C308.345 930.903 314.845 929.873 318.213 925.237L357.038 871.803C360.393 867.186 359.37 860.736 354.864 857.233C343.214 848.179 332.092 838.365 321.54 827.813L321.532 827.806Z" fill="#7594D7"/>
<path d="M306.246 577.787C306.246 553.293 309.551 529.309 315.927 506.341C317.453 500.845 314.495 495.034 309.071 493.272L246.271 472.865C240.822 471.094 234.954 474.08 233.359 479.584C224.166 511.299 219.523 544.179 219.523 577.787C219.523 611.396 224.166 644.276 233.359 675.991C234.954 681.495 240.822 684.481 246.271 682.71L309.071 662.303C314.495 660.54 317.453 654.729 315.927 649.234C309.551 626.266 306.246 602.282 306.246 577.787Z" fill="#658EE8"/>
<path d="M394.437 577.786C394.437 562.684 396.321 547.876 399.958 533.621C401.367 528.102 398.419 522.303 393.001 520.543L330.167 500.128C324.711 498.355 318.831 501.351 317.3 506.88C310.985 529.675 307.715 553.477 307.715 577.786C307.715 602.096 310.985 625.897 317.3 648.693C318.831 654.222 324.71 657.218 330.167 655.445L392.997 635.031C398.416 633.27 401.364 627.469 399.955 621.948C396.316 607.694 394.437 592.888 394.437 577.786Z" fill="#3F72E2"/>
<path d="M482.63 577.786C482.63 572.038 483.18 566.413 484.228 560.964C485.303 555.376 482.388 549.587 476.976 547.828L414.1 527.399C408.636 525.624 402.741 528.628 401.326 534.196C397.751 548.267 395.9 562.88 395.9 577.786C395.9 592.693 397.747 607.308 401.325 621.381C402.74 626.946 408.634 629.948 414.096 628.174L476.979 607.743C482.389 605.985 485.305 600.197 484.229 594.61C483.18 589.16 482.63 583.536 482.63 577.786Z" fill="#3968CE"/>
<path d="M218.053 577.784C218.053 544.013 222.723 510.959 231.973 479.088C233.566 473.602 230.603 467.776 225.171 466.011L162.36 445.602C156.912 443.831 151.049 446.816 149.419 452.307C137.403 492.793 131.331 534.818 131.331 577.784C131.331 620.751 137.403 662.782 149.419 703.262C151.049 708.753 156.911 711.738 162.359 709.967L225.172 689.557C230.604 687.792 233.567 681.968 231.976 676.482C222.729 644.611 218.053 611.556 218.053 577.784Z" fill="#7EA1EC"/>
<path d="M383.91 390.148C383.909 390.148 383.908 390.146 383.909 390.146C391.189 382.866 398.82 376.07 406.761 369.763C411.227 366.217 412.249 359.777 408.897 355.164L370.074 301.725C366.704 297.087 360.199 296.055 355.674 299.574C344.102 308.57 333.054 318.325 322.569 328.81C290.254 361.125 264.877 398.776 247.165 440.704C244.684 446.573 242.372 452.492 240.226 458.455C238.285 463.846 241.277 469.709 246.726 471.479L309.482 491.871C314.918 493.637 320.737 490.658 322.723 485.298C335.818 449.96 356.487 417.576 383.912 390.151C383.912 390.15 383.912 390.148 383.91 390.148V390.148Z" fill="#84A8F3"/>
<path d="M446.284 452.514C446.286 452.516 446.29 452.516 446.292 452.514C450.279 448.527 454.424 444.758 458.711 441.207C463.094 437.575 464.114 431.155 460.768 426.549L421.94 373.103C418.567 368.46 412.049 367.428 407.557 371C399.701 377.246 392.151 383.974 384.95 391.18C357.7 418.43 337.158 450.608 324.131 485.717C322.139 491.086 325.136 496.947 330.582 498.717L393.411 519.13C398.841 520.894 404.646 517.918 406.742 512.607C415.526 490.349 428.86 469.932 446.277 452.514C446.279 452.512 446.282 452.512 446.284 452.514V452.514Z" fill="#6592F0"/>
<path d="M510.841 512.875C514.989 508.993 516.025 502.604 512.685 498.007L473.807 444.494C470.43 439.846 463.894 438.811 459.474 442.482C455.282 445.963 451.228 449.654 447.324 453.554C430.087 470.79 416.879 490.992 408.168 513.011C406.06 518.341 409.065 524.216 414.516 525.987L477.445 546.437C482.851 548.194 488.609 545.231 491.027 540.087C495.867 529.789 502.627 520.564 510.841 512.875Z" fill="#5C85DA"/>
<path d="M245.809 440.131C245.811 440.129 245.813 440.126 245.814 440.123C263.607 398.02 289.079 360.224 321.533 327.771C332.085 317.218 343.208 307.405 354.857 298.35C359.364 294.847 360.386 288.398 357.031 283.78L318.208 230.348C314.839 225.712 308.338 224.682 303.791 228.171C288.52 239.892 273.966 252.661 260.188 266.433C219.774 306.847 188.046 353.927 165.888 406.357C162.421 414.56 159.216 422.838 156.271 431.19C154.367 436.589 157.356 442.445 162.801 444.214L225.62 464.626C231.052 466.391 236.873 463.419 238.807 458.045C240.971 452.028 243.302 446.059 245.803 440.14C245.804 440.137 245.806 440.134 245.809 440.131V440.131Z" fill="#98B6F5"/>
<path d="M560.494 312.714C566.199 312.481 570.822 307.869 570.822 302.16V236.139C570.822 230.41 566.169 225.753 560.443 225.929C516.804 227.266 474.475 236.49 434.462 253.401C413.019 262.463 392.699 273.527 373.642 286.495C368.909 289.716 367.887 296.213 371.252 300.844L410.065 354.269C413.425 358.894 419.886 359.904 424.642 356.732C464.777 329.959 511.439 314.711 560.494 312.714Z" fill="#F26261"/>
<path d="M560.574 489.545C566.219 488.846 570.821 484.286 570.821 478.598V412.552C570.821 406.814 566.153 402.138 560.427 402.494C530.622 404.344 502.253 413.602 477.461 429.377C472.626 432.453 471.606 438.972 474.974 443.608L513.859 497.125C517.205 501.73 523.615 502.712 528.595 499.953C538.294 494.579 549.1 490.964 560.574 489.545Z" fill="#D93634"/>
<path d="M560.513 401.015C566.206 400.667 570.822 396.068 570.822 390.364V324.344C570.822 318.612 566.165 313.949 560.438 314.185C511.726 316.189 465.391 331.33 425.525 357.91C420.762 361.086 419.744 367.586 423.108 372.217L461.93 425.655C465.287 430.276 471.736 431.279 476.552 428.209C501.63 412.222 530.344 402.857 560.513 401.015Z" fill="#EF3B39"/>
<path d="M433.893 252.042C433.891 252.04 433.892 252.037 433.894 252.036C474.102 235.047 516.635 225.787 560.486 224.454C566.196 224.28 570.822 219.662 570.822 213.949V147.939C570.822 142.212 566.173 137.559 560.448 137.7C504.894 139.059 451.011 150.623 400.119 172.128C372.442 183.823 346.264 198.191 321.765 215.088C317.053 218.338 316.03 224.832 319.395 229.463L358.217 282.892C361.577 287.516 368.038 288.531 372.763 285.315C391.918 272.275 412.34 261.151 433.892 252.047C433.894 252.046 433.894 252.043 433.893 252.042V252.042Z" fill="#F47C7A"/>
<path d="M718.473 356.732C723.229 359.904 729.69 358.894 733.05 354.269L771.862 300.846C775.227 296.213 774.204 289.716 769.47 286.495C750.408 273.527 730.089 262.464 708.653 253.401C668.64 236.49 626.311 227.266 582.671 225.929C576.945 225.753 572.293 230.41 572.293 236.139V302.16C572.293 307.869 576.915 312.481 582.62 312.714C631.675 314.711 678.337 329.959 718.473 356.732Z" fill="#F9C7ED"/>
<path d="M666.563 428.201C671.379 431.271 677.828 430.268 681.185 425.647L720.006 372.21C723.371 367.579 722.352 361.078 717.588 357.902C677.723 331.328 631.389 316.182 582.677 314.177C576.95 313.941 572.293 318.604 572.293 324.336V390.356C572.293 396.06 576.909 400.659 582.602 401.007C612.771 402.849 641.485 412.215 666.563 428.201Z" fill="#F7B9E9"/>
<path d="M614.518 499.949C619.498 502.709 625.911 501.728 629.257 497.122L668.14 443.608C671.508 438.972 670.488 432.453 665.654 429.377C640.861 413.602 612.492 404.344 582.687 402.494C576.961 402.138 572.293 406.814 572.293 412.552V478.598C572.293 484.286 576.895 488.846 582.54 489.544C594.016 490.962 604.819 494.574 614.518 499.949Z" fill="#E1A8D4"/>
<path d="M709.226 252.038C730.78 261.148 751.203 272.269 770.359 285.308C775.084 288.524 781.546 287.509 784.906 282.885L823.727 229.455C827.092 224.824 826.07 218.331 821.358 215.081C796.858 198.183 770.68 183.816 743.004 172.121C692.105 150.622 638.222 139.059 582.667 137.7C576.942 137.559 572.293 142.212 572.293 147.939V213.949C572.293 219.662 576.92 224.281 582.63 224.454C626.482 225.787 669.017 235.048 709.226 252.038Z" fill="#FBDFF5"/>
<path d="M652.088 540.081C654.506 545.226 660.264 548.19 665.671 546.433L728.599 525.984C734.049 524.212 737.055 518.337 734.947 513.007C726.235 490.988 713.027 470.786 695.791 453.55C691.889 449.648 687.834 445.955 683.639 442.472C679.22 438.804 672.687 439.839 669.311 444.486L630.43 498.004C627.09 502.6 628.126 508.989 632.274 512.871C640.488 520.558 647.248 529.782 652.088 540.081Z" fill="#B9B9B9"/>
<path d="M759.216 390.144C759.213 390.144 759.212 390.147 759.214 390.149C786.637 417.574 807.305 449.958 820.4 485.294C822.386 490.654 828.205 493.633 833.641 491.867L896.399 471.475C901.847 469.705 904.839 463.843 902.9 458.453C900.752 452.486 898.44 446.567 895.958 440.7C878.239 398.772 852.869 361.129 820.554 328.806C810.07 318.323 799.024 308.574 787.459 299.577C782.932 296.056 776.424 297.086 773.053 301.725L734.233 355.16C730.882 359.774 731.903 366.213 736.369 369.759C744.309 376.065 751.94 382.861 759.218 390.139C759.22 390.141 759.219 390.144 759.216 390.144V390.144Z" fill="#D5D5D5"/>
<path d="M696.824 452.518C696.826 452.516 696.83 452.516 696.832 452.518C714.249 469.936 727.583 490.353 736.367 512.611C738.463 517.922 744.267 520.898 749.697 519.134L812.528 498.72C817.974 496.951 820.971 491.09 818.979 485.722C805.957 450.612 785.409 418.434 758.158 391.184C750.958 383.984 743.409 377.258 735.553 371.009C731.061 367.436 724.54 368.466 721.166 373.11L682.348 426.543C678.999 431.153 680.023 437.578 684.411 441.213C688.696 444.763 692.836 448.533 696.817 452.518C696.819 452.52 696.822 452.52 696.824 452.518V452.518Z" fill="#CBCBCB"/>
<path d="M821.583 327.76C854.037 360.215 879.51 398.013 897.303 440.117C899.805 446.038 902.136 452.012 904.301 458.03C906.234 463.404 912.055 466.374 917.486 464.609L980.301 444.198C985.749 442.428 988.737 436.569 986.832 431.167C983.887 422.817 980.686 414.541 977.22 406.34C955.062 353.909 923.334 306.829 882.92 266.415C869.141 252.636 854.592 239.871 839.316 228.151C834.77 224.663 828.27 225.693 824.902 230.329L786.077 283.763C782.722 288.38 783.744 294.83 788.251 298.333C799.9 307.387 811.023 317.201 821.575 327.753L821.583 327.76Z" fill="#DCDCDC"/>
<path d="M660.485 577.786C660.485 583.534 659.935 589.159 658.887 594.608C657.812 600.196 660.727 605.985 666.139 607.743L729.015 628.173C734.479 629.948 740.374 626.944 741.789 621.376C745.363 607.305 747.215 592.691 747.215 577.786C747.215 562.879 745.368 548.264 741.79 534.191C740.375 528.625 734.481 525.623 729.019 527.398L666.136 547.829C660.726 549.587 657.81 555.375 658.885 560.961C659.934 566.412 660.485 572.036 660.485 577.786Z" fill="#6E9579"/>
<path d="M836.869 577.787C836.869 602.282 833.563 626.266 827.188 649.234C825.662 654.729 828.62 660.54 834.044 662.303L896.843 682.71C902.293 684.481 908.16 681.495 909.756 675.991C918.949 644.276 923.591 611.396 923.591 577.787C923.591 544.179 918.949 511.299 909.756 479.584C908.16 474.08 902.293 471.094 896.843 472.865L834.044 493.272C828.62 495.034 825.662 500.845 827.188 506.341C833.563 529.309 836.869 553.293 836.869 577.787Z" fill="#94B69D"/>
<path d="M748.677 577.786C748.677 592.889 746.793 607.697 743.155 621.951C741.747 627.471 744.695 633.27 750.113 635.03L812.947 655.445C818.403 657.218 824.282 654.222 825.814 648.693C832.129 625.897 835.399 602.096 835.399 577.786C835.399 553.477 832.129 529.675 825.814 506.88C824.282 501.351 818.403 498.355 812.947 500.128L750.117 520.542C744.697 522.302 741.749 528.103 743.159 533.624C746.798 547.878 748.677 562.685 748.677 577.786Z" fill="#79A485"/>
<path d="M925.062 577.784C925.062 611.556 920.393 644.61 911.142 676.481C909.55 681.967 912.512 687.793 917.945 689.558L980.756 709.967C986.204 711.737 992.067 708.753 993.696 703.261C1005.71 662.776 1011.78 620.751 1011.78 577.784C1011.78 534.818 1005.71 492.787 993.697 452.307C992.067 446.816 986.204 443.831 980.756 445.601L917.943 466.011C912.511 467.776 909.548 473.601 911.14 479.086C920.387 510.958 925.062 544.012 925.062 577.784Z" fill="#A5C2AD"/>
<path d="M759.201 765.437C759.204 765.437 759.205 765.44 759.204 765.442C751.925 772.72 744.294 779.516 736.354 785.822C731.889 789.369 730.867 795.808 734.219 800.421L773.042 853.86C776.411 858.498 782.917 859.53 787.442 856.011C799.013 847.015 810.06 837.26 820.539 826.775C852.854 794.46 878.232 756.809 895.944 714.881C898.424 709.012 900.736 703.094 902.882 697.13C904.823 691.74 901.831 685.876 896.382 684.106L833.626 663.714C828.191 661.948 822.371 664.927 820.385 670.287C807.291 705.624 786.622 738.007 759.199 765.432C759.197 765.434 759.199 765.437 759.201 765.437V765.437Z" fill="#75B7C1"/>
<path d="M696.831 703.066C696.829 703.064 696.825 703.064 696.823 703.066C692.836 707.053 688.691 710.822 684.404 714.373C680.021 718.005 679.001 724.425 682.347 729.031L721.175 782.477C724.548 787.12 731.066 788.151 735.558 784.58C743.414 778.334 750.964 771.606 758.165 764.4C785.415 737.15 805.956 704.972 818.984 669.863C820.976 664.494 817.979 658.633 812.533 656.863L749.704 636.45C744.274 634.685 738.469 637.662 736.373 642.973C727.589 665.23 714.255 685.648 696.838 703.066C696.836 703.068 696.833 703.068 696.831 703.066V703.066Z" fill="#52A5B1"/>
<path d="M632.274 642.698C628.126 646.58 627.09 652.969 630.43 657.565L669.308 711.079C672.685 715.727 679.221 716.762 683.641 713.091C687.833 709.61 691.887 705.919 695.791 702.019C713.027 684.783 726.235 664.581 734.947 642.562C737.055 637.232 734.049 631.357 728.599 629.586L665.67 609.136C660.263 607.379 654.506 610.342 652.088 615.486C647.247 625.784 640.488 635.009 632.274 642.698Z" fill="#4B96A1"/>
<path d="M897.3 715.458C897.297 715.461 897.295 715.464 897.294 715.467C879.501 757.569 854.029 795.365 821.576 827.819C811.023 838.371 799.901 848.185 788.252 857.239C783.745 860.742 782.722 867.191 786.077 871.809L824.901 925.241C828.27 929.878 834.771 930.907 839.317 927.418C854.589 915.697 869.143 902.928 882.921 889.157C923.335 848.742 955.062 801.662 977.22 749.232C980.687 741.03 983.892 732.752 986.837 724.4C988.741 719 985.752 713.145 980.307 711.375L917.489 690.964C912.056 689.198 906.235 692.17 904.302 697.545C902.138 703.561 899.807 709.53 897.306 715.45C897.304 715.453 897.302 715.456 897.3 715.458V715.458Z" fill="#8BC3CB"/>
</svg>
