<svg width="26" height="19" viewBox="0 0 26 19" fill="none" xmlns="http://www.w3.org/2000/svg">
<circle cx="18.5" cy="4.5" r="4" stroke="#5B5561"/>
<path d="M22.9786 4.94141C22.9928 4.79618 23 4.64894 23 4.5C23 4.31085 22.9883 4.12442 22.9657 3.94141H26V4.94141H22.9786Z" fill="#5B5561"/>
<path d="M14.0214 4.94141H0V3.94141H14.0343C14.0117 4.12442 14 4.31085 14 4.5C14 4.64894 14.0072 4.79618 14.0214 4.94141Z" fill="#5B5561"/>
<circle cx="7.5" cy="14.5" r="4" stroke="#5B5561"/>
<path d="M11.9786 14.9414C11.9928 14.7962 12 14.6489 12 14.5C12 14.3108 11.9883 14.1244 11.9657 13.9414H26V14.9414H11.9786Z" fill="#5B5561"/>
<path d="M3.02137 14.9414H0V13.9414H3.03433C3.01167 14.1244 3 14.3108 3 14.5C3 14.6489 3.00724 14.7962 3.02137 14.9414Z" fill="#5B5561"/>
</svg>
