<svg width="631" height="631" viewBox="0 0 631 631" fill="none" xmlns="http://www.w3.org/2000/svg">
<path d="M141.622 559.852C103.741 532.33 72.9107 496.233 51.653 454.512C30.3954 412.792 19.3135 366.632 19.3135 319.808C19.3135 272.984 30.3953 226.825 51.653 185.105C72.9106 143.384 103.741 107.287 141.622 79.7644L287.02 279.888C280.721 284.465 275.593 290.468 272.058 297.407C268.523 304.345 266.68 312.021 266.68 319.808C266.68 327.595 268.523 335.272 272.058 342.21C275.593 349.148 280.721 355.152 287.02 359.729L141.622 559.852Z" fill="url(#paint0_linear_671_12663)" fill-opacity="0.2"/>
<mask id="path-2-inside-1_671_12663" fill="white">
<path d="M141.622 559.852C103.741 532.33 72.9107 496.233 51.653 454.512C30.3954 412.792 19.3135 366.632 19.3135 319.808C19.3135 272.984 30.3953 226.825 51.653 185.105C72.9106 143.384 103.741 107.287 141.622 79.7644L145.11 84.5653C107.986 111.537 77.7729 146.913 56.9404 187.799C36.1079 228.685 25.2477 273.921 25.2477 319.808C25.2477 365.696 36.1079 410.932 56.9404 451.818C77.773 492.704 107.986 528.079 145.11 555.051L141.622 559.852Z"/>
</mask>
<path d="M141.622 559.852C103.741 532.33 72.9107 496.233 51.653 454.512C30.3954 412.792 19.3135 366.632 19.3135 319.808C19.3135 272.984 30.3953 226.825 51.653 185.105C72.9106 143.384 103.741 107.287 141.622 79.7644L145.11 84.5653C107.986 111.537 77.7729 146.913 56.9404 187.799C36.1079 228.685 25.2477 273.921 25.2477 319.808C25.2477 365.696 36.1079 410.932 56.9404 451.818C77.773 492.704 107.986 528.079 145.11 555.051L141.622 559.852Z" stroke="#3F72E2" stroke-width="10.0901" mask="url(#path-2-inside-1_671_12663)"/>
<g opacity="0.2">
<path d="M322.113 368.673C318.987 369.06 316.439 371.585 316.439 374.734V411.303C316.439 414.48 319.024 417.069 322.194 416.872C338.697 415.847 354.404 410.721 368.131 401.987C370.808 400.284 371.373 396.675 369.508 394.108L347.978 364.476C346.125 361.927 342.576 361.383 339.819 362.91C334.449 365.886 328.466 367.887 322.113 368.673Z" fill="#9D84B6"/>
<path d="M322.157 466.582C318.998 466.71 316.438 469.264 316.438 472.425V508.98C316.438 512.152 319.014 514.73 322.185 514.633C346.347 513.892 369.784 508.785 391.938 499.422C403.811 494.404 415.062 488.279 425.613 481.098C428.234 479.315 428.8 475.718 426.937 473.153L405.447 443.573C403.586 441.012 400.009 440.453 397.376 442.21C375.153 457.033 349.317 465.476 322.157 466.582Z" fill="#BDA7D3"/>
<path d="M322.146 417.69C318.994 417.883 316.438 420.429 316.438 423.587V460.141C316.438 463.315 319.017 465.897 322.188 465.766C349.159 464.657 374.817 456.273 396.887 441.557C399.524 439.798 400.088 436.199 398.225 433.635L376.73 404.048C374.871 401.489 371.301 400.934 368.634 402.634C354.749 411.485 338.85 416.67 322.146 417.69Z" fill="#AC91C8"/>
<path d="M392.254 500.17C392.255 500.171 392.255 500.173 392.253 500.174C369.991 509.58 346.441 514.707 322.162 515.445C319 515.541 316.438 518.098 316.438 521.261V557.81C316.438 560.981 319.013 563.557 322.183 563.48C352.942 562.727 382.776 556.324 410.954 544.417C426.278 537.942 440.775 529.987 454.338 520.631C456.947 518.831 457.512 515.236 455.65 512.673L434.154 483.089C432.294 480.529 428.716 479.967 426.1 481.748C415.494 488.967 404.187 495.127 392.254 500.167C392.253 500.168 392.253 500.169 392.254 500.17V500.17Z" fill="#C7B5DA"/>
</g>
<g opacity="0.2">
<path d="M292.245 362.912C289.488 361.384 285.937 361.928 284.084 364.478L262.555 394.108C260.69 396.675 261.255 400.284 263.932 401.987C277.659 410.721 293.367 415.847 309.869 416.872C313.04 417.069 315.624 414.48 315.624 411.303V374.734C315.624 371.585 313.076 369.06 309.951 368.674C303.596 367.888 297.615 365.889 292.245 362.912Z" fill="#795A97"/>
<path d="M263.43 402.634C260.763 400.934 257.192 401.489 255.334 404.048L233.839 433.634C231.976 436.199 232.54 439.798 235.178 441.556C257.251 456.27 282.905 464.656 309.876 465.766C313.047 465.897 315.625 463.315 315.625 460.141V423.587C315.625 420.429 313.07 417.883 309.917 417.69C293.213 416.67 277.315 411.485 263.43 402.634Z" fill="#8563A6"/>
<path d="M234.688 442.21C232.055 440.453 228.477 441.012 226.617 443.573L205.128 473.153C203.264 475.718 203.83 479.315 206.452 481.098C217.006 488.278 228.256 494.404 240.125 499.422C262.279 508.785 285.716 513.892 309.879 514.633C313.049 514.73 315.625 512.152 315.625 508.98V472.425C315.625 469.264 313.066 466.71 309.907 466.582C282.746 465.476 256.91 457.033 234.688 442.21Z" fill="#9D82B8"/>
<path d="M239.805 500.172C239.806 500.171 239.806 500.17 239.805 500.169C227.872 495.125 216.565 488.968 205.959 481.749C203.343 479.969 199.765 480.531 197.905 483.091L176.41 512.674C174.547 515.238 175.113 518.833 177.722 520.633C191.287 529.989 205.781 537.944 221.105 544.419C249.283 556.326 279.117 562.729 309.876 563.481C313.047 563.559 315.621 560.983 315.621 557.812V521.263C315.621 518.1 313.059 515.543 309.897 515.447C285.618 514.709 262.068 509.582 239.806 500.175C239.805 500.175 239.804 500.173 239.805 500.172V500.172Z" fill="#AD96C3"/>
</g>
<path d="M271.443 340.688C270.104 337.839 266.916 336.198 263.923 337.171L229.081 348.493C226.063 349.474 224.399 352.727 225.566 355.678C230.389 367.87 237.702 379.055 247.246 388.599C249.406 390.759 251.651 392.804 253.974 394.732C256.421 396.763 260.038 396.19 261.907 393.617L283.435 363.985C285.284 361.44 284.711 357.903 282.414 355.754C277.866 351.497 274.123 346.39 271.443 340.688Z" fill="#2D56B2"/>
<path d="M212.131 423.709C212.131 423.709 212.132 423.708 212.131 423.708C196.947 408.523 185.503 390.592 178.252 371.026C177.153 368.059 173.931 366.409 170.921 367.387L136.173 378.678C133.156 379.658 131.5 382.904 132.574 385.888C133.763 389.192 135.043 392.469 136.417 395.717C146.228 418.932 160.275 439.774 178.167 457.671C183.972 463.476 190.089 468.874 196.496 473.856C199.002 475.805 202.605 475.234 204.471 472.666L225.965 443.079C227.821 440.525 227.255 436.96 224.783 434.996C220.386 431.504 216.161 427.741 212.13 423.711C212.13 423.71 212.13 423.709 212.131 423.709V423.709Z" fill="#5A7FD0"/>
<path d="M246.674 389.171C246.673 389.172 246.671 389.172 246.67 389.171C237.027 379.527 229.644 368.222 224.78 355.898C223.62 352.958 220.406 351.31 217.4 352.287L182.611 363.59C179.596 364.569 177.937 367.814 179.039 370.786C186.25 390.226 197.627 408.042 212.715 423.13C216.701 427.117 220.881 430.841 225.231 434.301C227.718 436.279 231.329 435.709 233.197 433.137L254.69 403.553C256.544 401 255.977 397.443 253.548 395.43C251.175 393.464 248.882 391.377 246.678 389.171C246.677 389.17 246.675 389.17 246.674 389.171V389.171Z" fill="#315FC4"/>
<path d="M177.597 458.244C159.628 440.274 145.524 419.346 135.672 396.034C134.287 392.756 132.996 389.448 131.798 386.116C130.727 383.141 127.505 381.496 124.497 382.473L89.7178 393.774C86.7017 394.754 85.0469 397.998 86.1018 400.989C87.7326 405.612 89.5046 410.195 91.4238 414.736C103.692 443.766 121.259 469.833 143.636 492.209C151.265 499.839 159.321 506.906 167.779 513.396C170.296 515.327 173.895 514.756 175.76 512.19L197.256 482.604C199.114 480.048 198.548 476.477 196.052 474.537C189.602 469.524 183.444 464.091 177.601 458.248L177.597 458.244Z" fill="#7594D7"/>
<path d="M169.133 319.814C169.133 306.251 170.964 292.972 174.494 280.255C175.338 277.212 173.701 273.995 170.697 273.019L135.927 261.72C132.909 260.739 129.661 262.393 128.777 265.44C123.687 283 121.117 301.205 121.117 319.814C121.117 338.422 123.687 356.627 128.777 374.187C129.661 377.234 132.909 378.888 135.927 377.907L170.697 366.608C173.701 365.632 175.338 362.415 174.494 359.372C170.964 346.655 169.133 333.376 169.133 319.814Z" fill="#658EE8"/>
<path d="M217.963 319.813C217.963 311.451 219.006 303.252 221.02 295.359C221.8 292.303 220.168 289.093 217.168 288.118L182.378 276.815C179.357 275.833 176.102 277.492 175.254 280.553C171.757 293.175 169.947 306.353 169.947 319.813C169.947 333.273 171.757 346.451 175.254 359.072C176.102 362.134 179.357 363.792 182.378 362.811L217.166 351.508C220.167 350.533 221.799 347.321 221.018 344.264C219.003 336.372 217.963 328.174 217.963 319.813Z" fill="#3F72E2"/>
<path d="M266.794 319.814C266.794 316.631 267.099 313.516 267.679 310.499C268.274 307.406 266.66 304.2 263.664 303.227L228.85 291.915C225.825 290.933 222.561 292.596 221.778 295.679C219.798 303.469 218.773 311.561 218.773 319.814C218.773 328.067 219.796 336.16 221.777 343.951C222.56 347.033 225.824 348.695 228.848 347.712L263.665 336.4C266.661 335.427 268.275 332.222 267.68 329.129C267.099 326.111 266.794 322.997 266.794 319.814Z" fill="#3968CE"/>
<path d="M120.303 319.812C120.303 301.114 122.888 282.813 128.01 265.166C128.892 262.129 127.251 258.903 124.243 257.925L89.4661 246.625C86.4497 245.645 83.2035 247.298 82.3011 250.338C75.648 272.754 72.2861 296.023 72.2861 319.812C72.2861 343.602 75.648 366.874 82.3009 389.287C83.2034 392.328 86.4495 393.98 89.4658 393L124.244 381.699C127.252 380.722 128.892 377.497 128.011 374.46C122.891 356.813 120.303 338.511 120.303 319.812Z" fill="#7EA1EC"/>
<path d="M212.135 215.92C212.134 215.92 212.134 215.919 212.134 215.919C216.165 211.889 220.39 208.126 224.787 204.634C227.259 202.67 227.825 199.105 225.969 196.55L204.473 166.962C202.608 164.394 199.006 163.823 196.5 165.771C190.094 170.752 183.977 176.153 178.171 181.959C160.279 199.851 146.228 220.698 136.421 243.912C135.048 247.162 133.768 250.439 132.579 253.741C131.505 256.725 133.161 259.972 136.178 260.952L170.925 272.242C173.935 273.22 177.157 271.571 178.256 268.603C185.507 249.037 196.951 231.107 212.135 215.922C212.136 215.921 212.135 215.92 212.135 215.92V215.92Z" fill="#84A8F3"/>
<path d="M246.67 250.451C246.671 250.452 246.673 250.452 246.674 250.451C248.882 248.244 251.177 246.157 253.55 244.191C255.977 242.18 256.542 238.625 254.689 236.075L233.191 206.483C231.323 203.912 227.714 203.341 225.227 205.318C220.877 208.777 216.697 212.502 212.71 216.492C197.623 231.58 186.249 249.396 179.036 268.835C177.933 271.808 179.592 275.053 182.608 276.033L217.395 287.335C220.402 288.312 223.616 286.664 224.776 283.724C229.64 271.4 237.022 260.095 246.666 250.451C246.667 250.45 246.669 250.45 246.67 250.451V250.451Z" fill="#6592F0"/>
<path d="M282.414 283.874C284.71 281.724 285.284 278.187 283.435 275.642L261.909 246.012C260.039 243.438 256.42 242.866 253.972 244.898C251.652 246.825 249.407 248.869 247.245 251.028C237.702 260.572 230.389 271.757 225.566 283.949C224.398 286.9 226.062 290.153 229.08 291.134L263.923 302.456C266.916 303.429 270.104 301.788 271.443 298.94C274.123 293.239 277.866 288.131 282.414 283.874Z" fill="#5C85DA"/>
<path d="M135.67 243.596C135.671 243.594 135.672 243.593 135.673 243.591C145.525 220.279 159.628 199.352 177.597 181.383C183.44 175.541 189.598 170.107 196.048 165.094C198.543 163.155 199.11 159.584 197.252 157.027L175.756 127.442C173.891 124.875 170.291 124.305 167.774 126.237C159.318 132.727 151.26 139.797 143.631 147.422C121.255 169.798 103.688 195.866 91.4194 224.896C89.4999 229.437 87.7255 234.021 86.0947 238.645C85.0404 241.634 86.6954 244.877 89.7103 245.856L124.492 257.158C127.5 258.135 130.723 256.49 131.793 253.514C132.991 250.183 134.282 246.878 135.667 243.6C135.668 243.598 135.669 243.597 135.67 243.596V243.596Z" fill="#98B6F5"/>
<g opacity="0.2">
<path d="M309.906 173.047C313.065 172.918 315.624 170.365 315.624 167.204V130.649C315.624 127.477 313.048 124.899 309.878 124.996C285.715 125.736 262.278 130.843 240.124 140.207C228.252 145.225 217.001 151.35 206.449 158.53C203.829 160.314 203.263 163.911 205.126 166.475L226.616 196.056C228.476 198.617 232.054 199.176 234.687 197.419C256.909 182.595 282.745 174.153 309.906 173.047Z" fill="#F26261"/>
<path d="M309.951 270.955C313.076 270.568 315.624 268.044 315.624 264.894V228.325C315.624 225.149 313.04 222.56 309.869 222.757C293.367 223.781 277.659 228.907 263.932 237.641C261.255 239.345 260.69 242.954 262.555 245.52L284.085 275.152C285.938 277.702 289.487 278.245 292.244 276.718C297.615 273.742 303.598 271.741 309.951 270.955Z" fill="#D93634"/>
<path d="M309.916 221.937C313.069 221.744 315.624 219.198 315.624 216.039V179.485C315.624 176.312 313.046 173.73 309.875 173.86C282.904 174.97 257.249 183.354 235.176 198.07C232.539 199.829 231.975 203.428 233.838 205.992L255.333 235.579C257.191 238.138 260.762 238.693 263.429 236.993C277.314 228.142 293.212 222.957 309.916 221.937Z" fill="#EF3B39"/>
<path d="M239.809 139.454C239.808 139.453 239.808 139.452 239.81 139.451C262.072 130.045 285.622 124.917 309.901 124.179C313.063 124.083 315.624 121.526 315.624 118.363V81.8148C315.624 78.6437 313.05 76.0676 309.88 76.1451C279.121 76.8976 249.287 83.3005 221.109 95.2078C205.785 101.683 191.291 109.638 177.726 118.994C175.117 120.793 174.551 124.389 176.414 126.953L197.909 156.536C199.769 159.096 203.347 159.658 205.963 157.877C216.569 150.657 227.876 144.498 239.808 139.457C239.81 139.457 239.81 139.455 239.809 139.454V139.454Z" fill="#F47C7A"/>
</g>
<g opacity="0.2">
<path d="M397.376 197.419C400.009 199.176 403.586 198.617 405.447 196.056L426.936 166.476C428.799 163.911 428.233 160.314 425.612 158.53C415.058 151.35 403.807 145.225 391.938 140.207C369.784 130.843 346.347 125.736 322.185 124.996C319.014 124.899 316.438 127.477 316.438 130.649V167.204C316.438 170.365 318.998 172.918 322.157 173.047C349.317 174.153 375.153 182.595 397.376 197.419Z" fill="#F9C7ED"/>
<path d="M368.634 236.989C371.301 238.689 374.871 238.134 376.73 235.575L398.225 205.989C400.088 203.424 399.523 199.825 396.886 198.067C374.813 183.353 349.159 174.967 322.188 173.857C319.017 173.726 316.438 176.308 316.438 179.481V216.035C316.438 219.194 318.994 221.74 322.146 221.933C338.85 222.953 354.749 228.138 368.634 236.989Z" fill="#F7B9E9"/>
<path d="M339.818 276.716C342.575 278.244 346.126 277.701 347.979 275.15L369.507 245.52C371.372 242.954 370.807 239.345 368.131 237.641C354.403 228.907 338.696 223.781 322.194 222.757C319.023 222.56 316.438 225.149 316.438 228.325V264.894C316.438 268.044 318.987 270.568 322.112 270.954C328.466 271.74 334.448 273.74 339.818 276.716Z" fill="#E1A8D4"/>
<path d="M392.256 139.452C404.19 144.496 415.498 150.654 426.104 157.873C428.72 159.654 432.298 159.092 434.158 156.532L455.653 126.949C457.516 124.384 456.95 120.789 454.341 118.99C440.776 109.634 426.282 101.679 410.958 95.2037C382.776 83.3003 352.942 76.8976 322.183 76.1451C319.013 76.0676 316.438 78.6437 316.438 81.8148V118.363C316.438 121.526 319 124.083 322.162 124.179C346.442 124.917 369.993 130.045 392.256 139.452Z" fill="#FBDFF5"/>
</g>
<g opacity="0.2">
<path d="M360.62 298.935C361.959 301.784 365.147 303.425 368.14 302.452L402.982 291.13C406 290.149 407.664 286.896 406.497 283.945C401.674 271.753 394.361 260.568 384.817 251.025C382.657 248.864 380.412 246.819 378.089 244.891C375.642 242.86 372.025 243.433 370.156 246.006L348.628 275.638C346.779 278.183 347.352 281.72 349.649 283.87C354.197 288.126 357.94 293.233 360.62 298.935Z" fill="#B9B9B9"/>
<path d="M419.934 215.918C419.933 215.918 419.932 215.92 419.933 215.921C435.117 231.106 446.561 249.036 453.811 268.601C454.91 271.569 458.132 273.218 461.142 272.24L495.89 260.95C498.907 259.97 500.563 256.724 499.489 253.74C498.3 250.436 497.02 247.159 495.646 243.91C485.835 220.696 471.788 199.853 453.896 181.957C448.091 176.152 441.975 170.755 435.572 165.773C433.066 163.823 429.462 164.394 427.596 166.963L406.102 196.548C404.246 199.103 404.812 202.668 407.284 204.632C411.681 208.123 415.906 211.886 419.936 215.916C419.937 215.917 419.936 215.918 419.934 215.918V215.918Z" fill="#D5D5D5"/>
<path d="M385.389 250.453C385.39 250.452 385.392 250.452 385.393 250.453C395.037 260.097 402.42 271.402 407.283 283.726C408.444 286.666 411.658 288.314 414.664 287.337L449.452 276.035C452.467 275.055 454.127 271.81 453.024 268.838C445.814 249.398 434.437 231.582 419.349 216.494C415.362 212.507 411.182 208.783 406.833 205.323C404.345 203.345 400.735 203.915 398.867 206.487L377.374 236.072C375.52 238.624 376.087 242.182 378.516 244.194C380.889 246.16 383.181 248.247 385.385 250.453C385.386 250.454 385.388 250.454 385.389 250.453V250.453Z" fill="#CBCBCB"/>
<path d="M454.466 181.378C472.435 199.347 486.539 220.275 496.391 243.588C497.776 246.866 499.067 250.173 500.265 253.505C501.336 256.481 504.558 258.126 507.566 257.148L542.345 245.847C545.361 244.867 547.016 241.623 545.961 238.632C544.331 234.009 542.559 229.426 540.639 224.886C528.371 195.856 510.804 169.789 488.427 147.412C480.798 139.783 472.742 132.715 464.284 126.226C461.767 124.295 458.168 124.865 456.303 127.432L434.807 157.017C432.949 159.574 433.515 163.145 436.011 165.084C442.461 170.098 448.619 175.531 454.462 181.374L454.466 181.378Z" fill="#DCDCDC"/>
</g>
<g opacity="0.2">
<path d="M365.269 319.814C365.269 322.996 364.964 326.111 364.384 329.128C363.789 332.221 365.403 335.427 368.399 336.401L403.213 347.712C406.238 348.695 409.502 347.031 410.285 343.949C412.264 336.158 413.289 328.066 413.289 319.814C413.289 311.56 412.267 303.468 410.286 295.676C409.503 292.594 406.239 290.932 403.215 291.915L368.398 303.227C365.402 304.2 363.788 307.405 364.383 310.498C364.964 313.516 365.269 316.63 365.269 319.814Z" fill="#6E9579"/>
<path d="M462.929 319.814C462.929 333.376 461.099 346.655 457.569 359.372C456.724 362.415 458.362 365.632 461.365 366.608L496.136 377.907C499.153 378.888 502.402 377.234 503.285 374.187C508.375 356.627 510.946 338.422 510.946 319.814C510.946 301.205 508.375 283 503.285 265.44C502.402 262.393 499.153 260.739 496.136 261.72L461.365 273.019C458.362 273.995 456.724 277.212 457.569 280.255C461.099 292.972 462.929 306.251 462.929 319.814Z" fill="#94B69D"/>
<path d="M414.099 319.813C414.099 328.175 413.056 336.373 411.042 344.266C410.262 347.322 411.894 350.533 414.894 351.507L449.684 362.811C452.705 363.792 455.96 362.134 456.809 359.072C460.305 346.451 462.115 333.273 462.115 319.813C462.115 306.353 460.305 293.175 456.809 280.553C455.96 277.492 452.705 275.833 449.684 276.815L414.896 288.117C411.896 289.092 410.263 292.304 411.044 295.361C413.059 303.253 414.099 311.451 414.099 319.813Z" fill="#79A485"/>
<path d="M511.76 319.812C511.76 338.511 509.175 356.812 504.053 374.459C503.171 377.496 504.811 380.722 507.819 381.699L542.597 393C545.613 393.98 548.859 392.327 549.762 389.287C556.415 366.871 559.777 343.602 559.777 319.812C559.777 296.023 556.415 272.751 549.762 250.338C548.859 247.297 545.613 245.645 542.597 246.625L507.818 257.926C504.811 258.903 503.171 262.128 504.052 265.165C509.171 282.812 511.76 301.113 511.76 319.812Z" fill="#A5C2AD"/>
</g>
<g opacity="0.2">
<path d="M419.927 423.711C419.928 423.711 419.929 423.713 419.928 423.714C415.898 427.744 411.673 431.506 407.277 434.998C404.804 436.962 404.238 440.527 406.094 443.081L427.59 472.67C429.455 475.237 433.057 475.809 435.563 473.86C441.97 468.879 448.086 463.478 453.888 457.673C471.78 439.78 485.831 418.934 495.638 395.719C497.012 392.469 498.292 389.193 499.48 385.891C500.555 382.906 498.898 379.66 495.881 378.679L461.134 367.389C458.125 366.411 454.903 368.061 453.803 371.028C446.553 390.594 435.109 408.524 419.925 423.708C419.924 423.709 419.925 423.711 419.927 423.711V423.711Z" fill="#75B7C1"/>
<path d="M385.393 389.177C385.392 389.176 385.39 389.176 385.389 389.177C383.181 391.385 380.886 393.471 378.513 395.437C376.086 397.448 375.521 401.003 377.374 403.553L398.872 433.145C400.74 435.716 404.349 436.287 406.836 434.31C411.186 430.851 415.366 427.126 419.353 423.136C434.441 408.049 445.814 390.232 453.027 370.793C454.13 367.82 452.471 364.575 449.455 363.595L414.668 352.293C411.661 351.316 408.448 352.964 407.287 355.904C402.424 368.228 395.041 379.533 385.397 389.177C385.396 389.178 385.394 389.178 385.393 389.177V389.177Z" fill="#52A5B1"/>
<path d="M349.649 355.751C347.352 357.901 346.779 361.438 348.628 363.984L370.154 393.613C372.024 396.187 375.643 396.759 378.09 394.727C380.411 392.8 382.656 390.756 384.817 388.597C394.361 379.053 401.674 367.868 406.497 355.676C407.664 352.725 406 349.472 402.982 348.492L368.14 337.169C365.146 336.196 361.958 337.837 360.62 340.685C357.94 346.386 354.197 351.495 349.649 355.751Z" fill="#4B96A1"/>
<path d="M496.389 396.038C496.387 396.039 496.386 396.041 496.386 396.042C486.534 419.354 472.431 440.281 454.462 458.25C448.619 464.092 442.461 469.526 436.011 474.539C433.515 476.479 432.949 480.05 434.807 482.606L456.303 512.191C458.168 514.758 461.768 515.328 464.285 513.396C472.74 506.906 480.799 499.837 488.427 492.211C510.804 469.835 528.371 443.767 540.639 414.738C542.559 410.196 544.333 405.613 545.964 400.989C547.018 397.999 545.363 394.757 542.348 393.777L507.567 382.476C504.559 381.498 501.336 383.144 500.266 386.119C499.067 389.451 497.777 392.756 496.392 396.033C496.391 396.035 496.39 396.036 496.389 396.038V396.038Z" fill="#8BC3CB"/>
</g>
<path d="M19.0831 401.388L18.8751 400.57C19.8053 400.181 20.1154 399.366 19.8134 398.18C19.5401 397.108 18.9281 396.559 18.2223 396.743C17.6185 396.899 17.39 397.349 17.492 398.27L17.6266 399.481C17.7898 400.909 17.4185 401.609 16.3945 401.871C15.2643 402.161 14.2036 401.322 13.8405 399.898C13.4488 398.364 13.9302 397.3 15.2684 396.752L15.4765 397.57C14.5708 397.971 14.3178 398.704 14.5789 399.718C14.8156 400.643 15.4275 401.2 16.0966 401.028C16.7086 400.868 16.8922 400.48 16.7658 399.416L16.6189 398.2C16.4638 396.911 16.8922 396.167 17.9081 395.905C19.0831 395.602 20.1562 396.449 20.556 398C20.9762 399.637 20.4785 400.872 19.0913 401.388H19.0831Z" fill="black"/>
<path d="M16.2851 393.186L12.4541 394.062L12.2583 393.203L15.9751 392.351C17.2072 392.069 18.0517 391.247 17.7743 390.011C17.4928 388.767 16.379 388.411 15.1468 388.693L11.43 389.544L11.2383 388.701L15.0489 387.83C16.8767 387.412 18.2149 388.268 18.5821 389.872C18.9452 391.476 18.1048 392.769 16.2851 393.186Z" fill="black"/>
<path d="M10.5034 385.241L9.89142 382.151C9.60583 380.719 10.3728 379.749 11.707 379.483C13.0411 379.217 14.1386 379.815 14.4242 381.243L14.8648 383.469L17.0149 383.039L17.1863 383.907L10.5034 385.241ZM13.6572 381.509C13.494 380.678 12.882 380.15 11.8865 380.347C10.8869 380.547 10.5279 381.268 10.6952 382.098L11.1154 384.218L14.0774 383.625L13.6572 381.505V381.509Z" fill="black"/>
<path d="M8.89565 376.875L8.1123 372.308L8.85077 372.181L9.48723 375.889L11.7149 375.504L11.1314 372.087L11.8699 371.96L12.4533 375.377L14.7218 374.984L14.0731 371.195L14.8115 371.068L15.6071 375.717L8.89157 376.875H8.89565Z" fill="black"/>
<path d="M7.59415 369.022L7.1372 365.867C6.95361 364.594 7.50032 363.538 9.0058 363.321C10.1115 363.162 10.9111 363.673 11.2906 364.5L13.5508 362.609L13.6895 363.563L11.5272 365.388L11.8332 367.52L14.2077 367.176L14.3342 368.048L7.59415 369.022ZM10.7316 365.457C10.6133 364.627 10.0829 364.058 9.13228 364.197C8.12454 364.344 7.82671 365.032 7.94503 365.863L8.25918 368.035L11.0417 367.634L10.7275 365.462L10.7316 365.457Z" fill="black"/>
<path d="M6.40735 360.38L6.30127 359.505L13.0617 358.67L13.1678 359.546L6.40735 360.38Z" fill="black"/>
<path d="M9.31221 355.974C7.33753 356.174 5.68517 354.947 5.50157 353.138C5.3139 351.264 6.59499 349.807 8.63902 349.598C10.6545 349.394 12.2742 350.625 12.4578 352.434C12.6455 354.308 11.3848 355.765 9.31221 355.974ZM8.74918 350.474C7.13762 350.638 6.14212 351.689 6.28084 353.06C6.41547 354.386 7.65169 355.258 9.21429 355.098C10.8463 354.934 11.8295 353.883 11.6949 352.512C11.5602 351.186 10.3322 350.314 8.74918 350.474Z" fill="black"/>
<path d="M5.0033 346.704L4.77482 343.525C4.68099 342.24 5.30113 341.229 6.81886 341.123C7.93267 341.041 8.69562 341.61 9.01385 342.461L11.4047 340.738L11.474 341.7L9.18929 343.361L9.34432 345.506L11.7392 345.334L11.8045 346.213L5.01146 346.704H5.0033ZM8.38554 343.374C8.32435 342.539 7.83476 341.933 6.88006 342.003C5.86416 342.076 5.51737 342.743 5.57857 343.578L5.73768 345.767L8.54466 345.563L8.38554 343.374Z" fill="black"/>
<path d="M4.23671 333.817L4.13879 330.67C4.09391 329.213 5.00781 328.383 6.36642 328.337C7.72911 328.297 8.70829 329.066 8.75725 330.523L8.82661 332.79L11.0175 332.72L11.0461 333.604L4.23671 333.817ZM7.96167 330.658C7.93311 329.811 7.42312 329.189 6.40314 329.221C5.38724 329.254 4.91397 329.909 4.93845 330.752L5.00781 332.912L8.02694 332.818L7.96167 330.658Z" fill="black"/>
<path d="M4.02448 325.306L4 320.669H4.7507L4.7711 324.43L7.03137 324.418L7.01505 320.952H7.76576L7.78208 324.413L10.0831 324.401L10.0627 320.555H10.8135L10.8379 325.269L4.02448 325.301V325.306Z" fill="black"/>
<path d="M4.03289 317.333L4.10225 314.146C4.13081 312.857 4.84071 311.911 6.35844 311.944C7.47225 311.969 8.18216 312.607 8.41879 313.483L10.9565 311.989L10.9361 312.951L8.50447 314.391L8.45959 316.544L10.8586 316.597L10.8382 317.481L4.02881 317.333H4.03289ZM7.70889 314.334C7.72521 313.499 7.29682 312.849 6.33804 312.828C5.32214 312.808 4.91415 313.438 4.89375 314.273L4.84479 316.47L7.65585 316.531L7.70481 314.334H7.70889Z" fill="black"/>
<path d="M4.27312 308.595L4.49344 303.955L5.2931 303.992L5.1095 307.802L7.49625 307.916L7.66353 304.454L8.46319 304.491L8.29591 307.953L11.1151 308.088L11.0743 308.915L4.26904 308.587L4.27312 308.595Z" fill="black"/>
<path d="M8.04702 301.653C6.06827 301.505 4.65662 300.008 4.78717 298.195C4.92589 296.317 6.44362 295.105 8.49173 295.257C10.5113 295.408 11.8944 296.902 11.7597 298.715C11.621 300.589 10.1237 301.804 8.04702 301.653ZM8.45093 296.141C6.83529 296.022 5.67251 296.881 5.57052 298.256C5.4726 299.586 6.54154 300.658 8.10414 300.777C9.74019 300.9 10.8907 300.036 10.9927 298.666C11.0906 297.336 10.0299 296.264 8.44685 296.145L8.45093 296.141Z" fill="black"/>
<path d="M5.41602 291.76L5.74241 288.588C5.87297 287.307 6.66039 286.419 8.17404 286.579C9.28377 286.694 9.93656 287.385 10.1038 288.281L12.7558 287.001L12.6579 287.958L10.1202 289.198L9.89984 291.338L12.2866 291.588L12.1968 292.463L5.4201 291.76H5.41602ZM9.32457 289.071C9.41025 288.236 9.0349 287.557 8.0802 287.459C7.06838 287.352 6.61143 287.95 6.52575 288.781L6.30136 290.966L9.10018 291.256L9.32457 289.071Z" fill="black"/>
<path d="M6.35449 283.055L6.50137 281.958L12.4458 280.493L7.09296 277.522L7.23983 276.434L13.9921 277.342L13.886 278.128L8.39445 277.391L13.5923 280.317L13.4984 281.013L7.69678 282.461L13.2087 283.202L13.1067 283.971L6.35449 283.063V283.055Z" fill="black"/>
<path d="M8.10857 270.914L8.25953 269.981L15.4116 268.463L15.2607 269.38L13.5022 269.727L12.9881 272.854L14.5426 273.75L14.3957 274.646L8.10449 270.914H8.10857ZM12.7189 269.879L9.05919 270.599L12.2946 272.457L12.7189 269.879Z" fill="black"/>
<path d="M9.20605 264.494L9.37333 263.618L15.383 260.921L10.0914 259.898L10.2464 259.084L16.9375 260.377L16.7743 261.216L10.7401 263.937L16.0521 264.964L15.893 265.787L9.20605 264.494Z" fill="black"/>
<path d="M14.2772 256.654C12.3882 256.232 11.0867 254.706 11.4988 252.852C11.8456 251.289 13.0695 250.426 14.8157 250.585L14.6362 251.395C13.3551 251.338 12.4983 251.907 12.2536 253.024C11.968 254.317 12.939 255.455 14.4485 255.794C15.9255 256.122 17.2596 255.565 17.5615 254.211C17.8226 253.032 17.28 252.202 16.1213 251.731L16.3008 250.921C17.9287 251.522 18.6549 252.848 18.3122 254.387C17.892 256.285 16.1091 257.067 14.2772 256.658V256.654Z" fill="black"/>
<path d="M12.9634 246.876L14.0894 242.379L14.8157 242.563L13.9018 246.213L16.0968 246.766L16.9372 243.406L17.6675 243.59L16.8271 246.95L19.0588 247.51L19.9931 243.782L20.7193 243.967L19.5728 248.542L12.9634 246.876Z" fill="black"/>
<path d="M140.757 79.459L314.18 318.467" stroke="white" stroke-width="3.78377"/>
<path d="M493.189 77.8379L316.37 316.524" stroke="white" stroke-width="3.78377"/>
<path d="M317.335 319.527L606.387 415.224" stroke="white" stroke-width="3.78377"/>
<path d="M315.819 22.7031L315.819 343.427" stroke="white" stroke-width="3.78377"/>
<path d="M601.658 227.611L293.109 325.72" stroke="white" stroke-width="3.78377"/>
<path d="M494.993 566.48L317.244 321.891" stroke="white" stroke-width="3.78377"/>
<path d="M314.18 321.67L132.47 572.25" stroke="white" stroke-width="3.78377"/>
<rect x="350.665" y="371.836" width="15.7657" height="15.7657" rx="7.88286" fill="#F6F4EE"/>
<path d="M355.4 382.719V377.174H352.972V376.627H358.464V377.174H356.045V382.719H355.4ZM361.282 382.807C359.763 382.807 358.827 381.589 358.827 379.69C358.827 377.775 359.763 376.565 361.282 376.565C362.791 376.565 363.718 377.775 363.718 379.69C363.718 381.589 362.791 382.807 361.282 382.807ZM361.282 382.277C362.412 382.277 363.083 381.306 363.083 379.69C363.083 378.066 362.412 377.104 361.282 377.104C360.152 377.104 359.472 378.075 359.472 379.69C359.472 381.306 360.152 382.277 361.282 382.277Z" fill="#5B5561"/>
<rect x="308.142" y="93.0605" width="15.7657" height="15.7657" rx="7.88286" fill="#F6F4EE"/>
<path d="M312.994 103.943V98.3989H310.566V97.8515H316.057V98.3989H313.638V103.943H312.994ZM318.808 104.023C317.546 104.023 316.584 103.369 316.584 102.195H317.21C317.21 102.999 317.881 103.493 318.817 103.493C319.824 103.493 320.451 103.008 320.451 102.204C320.451 101.436 319.877 101.039 318.817 101.039H318.173V100.553H318.782C319.859 100.553 320.256 100.05 320.265 99.3789C320.265 98.7344 319.753 98.3282 318.879 98.3282C317.961 98.3282 317.246 98.7962 317.246 99.6172H316.628C316.628 98.5225 317.608 97.7985 318.906 97.7985C320.142 97.7985 320.892 98.3812 320.892 99.3347C320.892 100.041 320.451 100.597 319.833 100.765C320.53 100.906 321.077 101.383 321.077 102.239C321.077 103.325 320.221 104.023 318.808 104.023Z" fill="#5B5561"/>
<rect x="265.889" y="372.453" width="15.7657" height="15.7657" rx="7.88286" fill="#F6F4EE"/>
<path d="M270.625 383.336V377.791H268.197V377.244H273.688V377.791H271.269V383.336H270.625ZM276.506 383.424C274.988 383.424 274.052 382.206 274.052 380.308C274.052 378.392 274.988 377.182 276.506 377.182C278.016 377.182 278.943 378.392 278.943 380.308C278.943 382.206 278.016 383.424 276.506 383.424ZM276.506 382.894C277.636 382.894 278.307 381.923 278.307 380.308C278.307 378.683 277.636 377.721 276.506 377.721C275.376 377.721 274.696 378.692 274.696 380.308C274.696 381.923 275.376 382.894 276.506 382.894Z" fill="#5B5561"/>
<rect x="518.896" y="243.529" width="15.7657" height="15.7657" rx="7.88286" fill="#F6F4EE"/>
<path d="M523.748 254.412V248.868H521.32V248.32H526.812V248.868H524.392V254.412H523.748ZM529.563 254.492C528.3 254.492 527.338 253.838 527.338 252.664H527.965C527.965 253.467 528.636 253.962 529.572 253.962C530.578 253.962 531.205 253.476 531.205 252.673C531.205 251.905 530.631 251.507 529.572 251.507H528.927V251.022H529.536C530.613 251.022 531.011 250.519 531.02 249.848C531.02 249.203 530.507 248.797 529.633 248.797C528.715 248.797 528 249.265 528 250.086H527.382C527.382 248.991 528.362 248.267 529.66 248.267C530.896 248.267 531.646 248.85 531.646 249.803C531.646 250.51 531.205 251.066 530.587 251.234C531.284 251.375 531.832 251.852 531.832 252.708C531.832 253.794 530.975 254.492 529.563 254.492Z" fill="#5B5561"/>
<rect x="240.59" y="289.15" width="15.7657" height="15.7657" rx="7.88286" fill="#F6F4EE"/>
<path d="M245.325 300.033V294.489H242.897V293.941H248.389V294.489H245.97V300.033H245.325ZM251.207 300.121C249.688 300.121 248.753 298.903 248.753 297.005C248.753 295.089 249.688 293.88 251.207 293.88C252.717 293.88 253.644 295.089 253.644 297.005C253.644 298.903 252.717 300.121 251.207 300.121ZM251.207 299.592C252.337 299.592 253.008 298.621 253.008 297.005C253.008 295.38 252.337 294.418 251.207 294.418C250.077 294.418 249.397 295.389 249.397 297.005C249.397 298.621 250.077 299.592 251.207 299.592Z" fill="#5B5561"/>
<rect x="379.345" y="411.805" width="15.7657" height="15.7657" rx="7.88286" fill="#F6F4EE"/>
<path d="M385.395 422.688V417.143H382.967V416.596H388.459V417.143H386.04V422.688H385.395ZM390.121 422.688V417.143H388.779V416.596H390.739V422.688H390.121Z" fill="#5B5561"/>
<rect x="308.142" y="142.252" width="15.7657" height="15.7657" rx="7.88286" fill="#F6F4EE"/>
<path d="M313.08 153.135V147.59H310.652V147.043H316.143V147.59H313.724V153.135H313.08ZM316.853 153.135V152.649L319.219 150.442C319.952 149.78 320.287 149.232 320.287 148.659C320.287 147.926 319.74 147.493 318.927 147.493C317.886 147.493 317.329 148.102 317.329 148.932H316.703C316.703 147.776 317.532 146.963 318.945 146.963C320.146 146.963 320.932 147.59 320.932 148.641C320.932 149.418 320.42 150.106 319.634 150.804L317.736 152.587H321.082V153.135H316.853Z" fill="#5B5561"/>
<rect x="236.88" y="412.184" width="15.7657" height="15.7657" rx="7.88286" fill="#F6F4EE"/>
<path d="M242.931 423.066V417.522H240.503V416.975H245.994V417.522H243.575V423.066H242.931ZM247.656 423.066V417.522H246.314V416.975H248.274V423.066H247.656Z" fill="#5B5561"/>
<rect x="471.976" y="258.309" width="15.7657" height="15.7657" rx="7.88286" fill="#F6F4EE"/>
<path d="M476.914 269.191V263.647H474.486V263.1H479.977V263.647H477.558V269.191H476.914ZM480.687 269.191V268.706L483.053 266.499C483.786 265.836 484.121 265.289 484.121 264.715C484.121 263.982 483.574 263.55 482.761 263.55C481.72 263.55 481.163 264.159 481.163 264.989H480.537C480.537 263.832 481.366 263.02 482.779 263.02C483.98 263.02 484.766 263.647 484.766 264.698C484.766 265.474 484.253 266.163 483.468 266.861L481.57 268.644H484.916V269.191H480.687Z" fill="#5B5561"/>
<rect x="193.78" y="274.025" width="15.7657" height="15.7657" rx="7.88286" fill="#F6F4EE"/>
<path d="M199.831 284.908V279.364H197.403V278.816H202.894V279.364H200.475V284.908H199.831ZM204.556 284.908V279.364H203.214V278.816H205.174V284.908H204.556Z" fill="#5B5561"/>
<rect x="207.241" y="452.543" width="15.7657" height="15.7657" rx="7.88286" fill="#F6F4EE"/>
<path d="M212.179 463.426V457.881H209.751V457.334H215.242V457.881H212.823V463.426H212.179ZM215.952 463.426V462.94L218.318 460.733C219.051 460.071 219.386 459.523 219.386 458.95C219.386 458.217 218.839 457.784 218.027 457.784C216.985 457.784 216.429 458.393 216.429 459.223H215.802C215.802 458.067 216.632 457.254 218.044 457.254C219.245 457.254 220.031 457.881 220.031 458.932C220.031 459.709 219.519 460.398 218.733 461.095L216.835 462.878H220.181V463.426H215.952Z" fill="#5B5561"/>
<rect x="424.173" y="273.221" width="15.7657" height="15.7657" rx="7.88286" fill="#F6F4EE"/>
<path d="M430.223 284.104V278.559H427.795V278.012H433.287V278.559H430.868V284.104H430.223ZM434.949 284.104V278.559H433.607V278.012H435.567V284.104H434.949Z" fill="#5B5561"/>
<rect x="146.174" y="258.498" width="15.7657" height="15.7657" rx="7.88286" fill="#F6F4EE"/>
<path d="M151.112 269.381V263.836H148.684V263.289H154.176V263.836H151.756V269.381H151.112ZM154.885 269.381V268.895L157.251 266.688C157.984 266.026 158.319 265.479 158.319 264.905C158.319 264.172 157.772 263.739 156.96 263.739C155.918 263.739 155.362 264.348 155.362 265.178H154.735C154.735 264.022 155.565 263.21 156.977 263.21C158.178 263.21 158.964 263.836 158.964 264.887C158.964 265.664 158.452 266.353 157.666 267.05L155.768 268.833H159.114V269.381H154.885Z" fill="#5B5561"/>
<rect x="408.424" y="452.568" width="15.7657" height="15.7657" rx="7.88286" fill="#F6F4EE"/>
<path d="M413.362 463.451V457.907H410.935V457.359H416.426V457.907H414.007V463.451H413.362ZM417.135 463.451V462.966L419.502 460.758C420.234 460.096 420.57 459.549 420.57 458.975C420.57 458.242 420.022 457.81 419.21 457.81C418.168 457.81 417.612 458.419 417.612 459.249H416.985C416.985 458.092 417.815 457.28 419.228 457.28C420.429 457.28 421.214 457.907 421.214 458.957C421.214 459.734 420.702 460.423 419.916 461.12L418.018 462.904H421.364V463.451H417.135Z" fill="#5B5561"/>
<rect x="308.142" y="192.32" width="15.7657" height="15.7657" rx="7.88286" fill="#F6F4EE"/>
<path d="M314.192 203.203V197.659H311.764V197.111H317.256V197.659H314.836V203.203H314.192ZM318.918 203.203V197.659H317.576V197.111H319.536V203.203H318.918Z" fill="#5B5561"/>
<rect x="437.899" y="492.135" width="15.7657" height="15.7657" rx="7.88286" fill="#F6F4EE"/>
<path d="M442.751 503.018V497.473H440.323V496.926H445.815V497.473H443.396V503.018H442.751ZM448.566 503.097C447.304 503.097 446.341 502.444 446.341 501.269H446.968C446.968 502.073 447.639 502.567 448.575 502.567C449.582 502.567 450.208 502.082 450.208 501.278C450.208 500.51 449.634 500.113 448.575 500.113H447.931V499.627H448.54C449.617 499.627 450.014 499.124 450.023 498.453C450.023 497.809 449.511 497.402 448.637 497.402C447.719 497.402 447.004 497.87 447.004 498.691H446.385C446.385 497.597 447.365 496.873 448.663 496.873C449.899 496.873 450.65 497.455 450.65 498.409C450.65 499.115 450.208 499.671 449.59 499.839C450.288 499.98 450.835 500.457 450.835 501.314C450.835 502.4 449.979 503.097 448.566 503.097Z" fill="#5B5561"/>
<rect x="308.142" y="241.66" width="15.7657" height="15.7657" rx="7.88286" fill="#F6F4EE"/>
<path d="M312.877 252.543V246.998H310.449V246.451H315.941V246.998H313.522V252.543H312.877ZM318.759 252.631C317.24 252.631 316.304 251.413 316.304 249.515C316.304 247.599 317.24 246.389 318.759 246.389C320.268 246.389 321.196 247.599 321.196 249.515C321.196 251.413 320.268 252.631 318.759 252.631ZM318.759 252.102C319.889 252.102 320.56 251.13 320.56 249.515C320.56 247.89 319.889 246.928 318.759 246.928C317.629 246.928 316.949 247.899 316.949 249.515C316.949 251.13 317.629 252.102 318.759 252.102Z" fill="#5B5561"/>
<rect x="178.863" y="492.904" width="15.7657" height="15.7657" rx="7.88286" fill="#F6F4EE"/>
<path d="M183.715 503.787V498.243H181.287V497.695H186.778V498.243H184.359V503.787H183.715ZM189.53 503.867C188.267 503.867 187.305 503.213 187.305 502.039H187.932C187.932 502.842 188.603 503.337 189.538 503.337C190.545 503.337 191.172 502.851 191.172 502.048C191.172 501.28 190.598 500.882 189.538 500.882H188.894V500.397H189.503C190.58 500.397 190.978 499.894 190.986 499.223C190.986 498.578 190.474 498.172 189.6 498.172C188.682 498.172 187.967 498.64 187.967 499.461H187.349C187.349 498.366 188.329 497.642 189.627 497.642C190.863 497.642 191.613 498.225 191.613 499.178C191.613 499.885 191.172 500.441 190.554 500.609C191.251 500.75 191.799 501.227 191.799 502.083C191.799 503.169 190.942 503.867 189.53 503.867Z" fill="#5B5561"/>
<rect x="377.386" y="288.881" width="15.7657" height="15.7657" rx="7.88286" fill="#F6F4EE"/>
<path d="M382.122 299.764V294.219H379.694V293.672H385.185V294.219H382.766V299.764H382.122ZM388.003 299.852C386.485 299.852 385.549 298.634 385.549 296.735C385.549 294.82 386.485 293.61 388.003 293.61C389.513 293.61 390.44 294.82 390.44 296.735C390.44 298.634 389.513 299.852 388.003 299.852ZM388.003 299.322C389.133 299.322 389.804 298.351 389.804 296.735C389.804 295.111 389.133 294.149 388.003 294.149C386.873 294.149 386.193 295.12 386.193 296.735C386.193 298.351 386.873 299.322 388.003 299.322Z" fill="#5B5561"/>
<rect x="98.9619" y="244.17" width="15.7657" height="15.7657" rx="7.88286" fill="#F6F4EE"/>
<path d="M103.814 255.053V249.508H101.386V248.961H106.877V249.508H104.458V255.053H103.814ZM109.629 255.132C108.366 255.132 107.404 254.479 107.404 253.305H108.031C108.031 254.108 108.702 254.602 109.638 254.602C110.644 254.602 111.271 254.117 111.271 253.313C111.271 252.545 110.697 252.148 109.638 252.148H108.993V251.662H109.602C110.679 251.662 111.077 251.159 111.085 250.488C111.085 249.844 110.573 249.438 109.699 249.438C108.781 249.438 108.066 249.906 108.066 250.727H107.448C107.448 249.632 108.428 248.908 109.726 248.908C110.962 248.908 111.712 249.491 111.712 250.444C111.712 251.15 111.271 251.707 110.653 251.874C111.35 252.016 111.898 252.492 111.898 253.349C111.898 254.435 111.041 255.132 109.629 255.132Z" fill="#5B5561"/>
<path d="M304.12 309.221V301.388H304.721V305.021H310.408V301.388H311.021V309.221H310.408V305.543H304.721V309.221H304.12ZM313.118 309.221V303.625H313.719V309.221H313.118ZM313.402 302.319C313.152 302.319 312.97 302.126 312.97 301.888C312.97 301.649 313.152 301.468 313.402 301.468C313.64 301.468 313.833 301.649 313.833 301.888C313.833 302.126 313.64 302.319 313.402 302.319ZM317.992 311.219C317.163 311.219 316.346 311.026 315.756 310.674V310.049C316.244 310.458 317.061 310.708 317.981 310.708C319.468 310.708 320.353 309.868 320.353 308.347V307.915C319.876 308.63 319.082 309.062 318.162 309.062C316.573 309.062 315.336 307.938 315.336 306.292C315.336 304.646 316.573 303.522 318.162 303.522C319.093 303.522 319.91 303.965 320.376 304.703V303.613H320.966V308.267C320.966 310.152 319.842 311.219 317.992 311.219ZM315.96 306.292C315.96 307.688 316.982 308.54 318.253 308.54C319.139 308.54 319.956 308.052 320.353 307.325V305.259C319.956 304.533 319.139 304.045 318.253 304.045C316.982 304.045 315.96 304.896 315.96 306.292ZM327.763 306.258C327.763 304.907 327.025 304.056 325.822 304.056C324.845 304.056 324.028 304.589 323.585 305.407V309.221H322.972V301.161H323.585V304.782C324.017 304.045 324.879 303.522 325.935 303.522C327.456 303.522 328.376 304.555 328.376 306.201V309.221H327.763V306.258ZM279.743 323.221V315.388H283.535C285.124 315.388 286.282 316.251 286.282 317.942C286.282 319.622 285.124 320.496 283.535 320.496H280.345V323.221H279.743ZM280.345 319.963H283.444C284.681 319.963 285.669 319.361 285.669 317.942C285.669 316.523 284.681 315.922 283.444 315.922H280.345V319.963ZM290.084 323.312C288.404 323.312 287.213 322.154 287.213 320.451C287.213 318.737 288.484 317.522 290.141 317.522C291.787 317.522 292.911 318.601 292.956 320.235C292.956 320.372 292.956 320.485 292.945 320.519H287.826C287.86 321.904 288.779 322.812 290.096 322.812C291.197 322.812 291.98 322.267 292.309 321.291H292.9C292.593 322.483 291.549 323.312 290.084 323.312ZM287.848 320.042H292.332C292.241 318.805 291.401 318.022 290.153 318.022C288.961 318.022 288.018 318.816 287.848 320.042ZM294.55 323.221V317.613H295.151V318.794C295.549 318.079 296.457 317.522 297.478 317.522C297.683 317.522 297.842 317.534 297.955 317.556V318.101C297.864 318.09 297.66 318.079 297.478 318.079C296.411 318.079 295.605 318.589 295.163 319.418V323.221H294.55ZM299.875 317.556C299.875 316.274 300.5 315.059 302.236 315.059C302.497 315.059 302.793 315.093 303.065 315.161V315.649C302.804 315.581 302.531 315.57 302.304 315.57C300.897 315.57 300.488 316.546 300.488 317.522V317.613H303.054V318.135H300.488V323.221H299.875V318.135H298.343V317.613H299.875V317.556ZM306.248 323.323C304.591 323.323 303.308 322.063 303.308 320.44C303.308 318.794 304.591 317.522 306.248 317.522C307.905 317.522 309.188 318.782 309.188 320.417C309.188 322.052 307.905 323.323 306.248 323.323ZM306.248 322.812C307.553 322.812 308.575 321.768 308.575 320.428C308.575 319.089 307.553 318.033 306.248 318.033C304.943 318.033 303.921 319.089 303.921 320.428C303.921 321.768 304.943 322.812 306.248 322.812ZM310.779 323.221V317.613H311.38V318.794C311.777 318.079 312.686 317.522 313.707 317.522C313.912 317.522 314.07 317.534 314.184 317.556V318.101C314.093 318.09 313.889 318.079 313.707 318.079C312.64 318.079 311.834 318.589 311.392 319.418V323.221H310.779ZM324.765 320.258C324.765 318.748 324.005 318.056 322.847 318.056C321.871 318.056 321.144 318.601 320.656 319.475C320.69 319.69 320.713 319.929 320.713 320.179V323.221H320.1V320.235C320.1 318.748 319.328 318.056 318.181 318.056C317.194 318.056 316.456 318.623 316.047 319.407V323.221H315.434V317.613H316.036V318.794C316.433 318.067 317.262 317.522 318.329 317.522C319.407 317.522 320.202 317.999 320.531 318.987C321.076 318.09 321.882 317.522 322.994 317.522C324.447 317.522 325.378 318.419 325.378 320.201V323.221H324.765V320.258ZM331.235 323.221V322.131C330.712 322.926 329.793 323.323 328.839 323.323C327.636 323.323 326.921 322.744 326.921 321.745C326.921 320.848 327.636 320.281 328.93 320.179L329.793 320.11C330.815 320.02 331.212 319.804 331.212 319.339C331.212 318.521 330.553 318.022 329.486 318.022C328.408 318.022 327.716 318.533 327.636 319.395H327.057C327.159 318.26 328.102 317.522 329.498 317.522C330.917 317.522 331.802 318.249 331.802 319.463V323.221H331.235ZM327.489 321.734C327.489 322.415 327.977 322.835 328.873 322.835C329.804 322.835 330.724 322.403 331.212 321.541V320.076C330.985 320.349 330.565 320.496 329.838 320.553L329.078 320.621C328.033 320.712 327.489 321.041 327.489 321.734ZM338.537 320.235C338.537 318.885 337.8 318.056 336.596 318.056C335.62 318.056 334.803 318.589 334.36 319.407V323.221H333.747V317.613H334.349V318.794C334.78 318.045 335.654 317.522 336.71 317.522C338.231 317.522 339.15 318.533 339.15 320.19V323.221H338.537V320.235ZM343.47 323.323C341.79 323.323 340.644 322.154 340.644 320.451C340.644 318.737 341.847 317.522 343.515 317.522C345.059 317.522 346.024 318.419 346.183 319.77H345.627C345.456 318.726 344.673 318.045 343.504 318.045C342.187 318.045 341.256 319.032 341.256 320.44C341.256 321.847 342.176 322.801 343.504 322.801C344.673 322.801 345.456 322.131 345.638 321.087H346.194C346.001 322.437 344.991 323.323 343.47 323.323ZM350.2 323.312C348.52 323.312 347.328 322.154 347.328 320.451C347.328 318.737 348.599 317.522 350.257 317.522C351.903 317.522 353.026 318.601 353.072 320.235C353.072 320.372 353.072 320.485 353.06 320.519H347.941C347.975 321.904 348.894 322.812 350.211 322.812C351.312 322.812 352.095 322.267 352.425 321.291H353.015C352.708 322.483 351.664 323.312 350.2 323.312ZM347.964 320.042H352.447C352.357 318.805 351.517 318.022 350.268 318.022C349.076 318.022 348.134 318.816 347.964 320.042ZM292.965 337.312C290.876 337.312 289.616 336.426 289.401 334.792H289.98C290.207 336.108 291.228 336.801 292.965 336.801C294.532 336.801 295.542 336.142 295.542 335.143C295.542 334.258 294.952 333.804 293.635 333.634L292.114 333.429C290.377 333.202 289.673 332.657 289.673 331.5C289.673 330.228 290.979 329.32 292.727 329.32C294.645 329.32 295.723 330.126 295.973 331.715H295.383C295.167 330.444 294.259 329.831 292.727 329.831C291.331 329.831 290.286 330.501 290.286 331.454C290.286 332.328 290.786 332.703 292.273 332.885L293.794 333.089C295.406 333.293 296.155 333.917 296.155 335.087C296.155 336.403 294.861 337.312 292.965 337.312ZM300.596 337.312C299.609 337.312 298.814 336.857 298.383 336.199V339.128H297.77V331.613H298.372V332.703C298.826 331.988 299.666 331.522 300.631 331.522C302.197 331.522 303.412 332.76 303.412 334.406C303.412 336.052 302.174 337.312 300.596 337.312ZM298.383 335.575C298.758 336.301 299.609 336.789 300.494 336.789C301.811 336.789 302.799 335.768 302.799 334.417C302.799 333.077 301.811 332.045 300.494 332.045C299.598 332.045 298.78 332.533 298.383 333.259V335.575ZM307.449 337.312C305.769 337.312 304.578 336.154 304.578 334.451C304.578 332.737 305.849 331.522 307.506 331.522C309.152 331.522 310.276 332.601 310.321 334.235C310.321 334.372 310.321 334.485 310.31 334.519H305.191C305.225 335.904 306.144 336.812 307.461 336.812C308.562 336.812 309.345 336.267 309.674 335.291H310.265C309.958 336.483 308.914 337.312 307.449 337.312ZM305.213 334.042H309.697C309.606 332.805 308.766 332.022 307.518 332.022C306.326 332.022 305.384 332.816 305.213 334.042ZM314.321 337.323C312.641 337.323 311.495 336.154 311.495 334.451C311.495 332.737 312.698 331.522 314.367 331.522C315.91 331.522 316.875 332.419 317.034 333.77H316.478C316.308 332.726 315.525 332.045 314.355 332.045C313.039 332.045 312.108 333.032 312.108 334.44C312.108 335.847 313.027 336.801 314.355 336.801C315.525 336.801 316.308 336.131 316.489 335.087H317.046C316.853 336.437 315.842 337.323 314.321 337.323ZM318.611 337.221V331.625H319.212V337.221H318.611ZM318.894 330.319C318.645 330.319 318.463 330.126 318.463 329.888C318.463 329.649 318.645 329.468 318.894 329.468C319.133 329.468 319.326 329.649 319.326 329.888C319.326 330.126 319.133 330.319 318.894 330.319ZM325.188 337.221V336.131C324.665 336.926 323.746 337.323 322.792 337.323C321.589 337.323 320.874 336.744 320.874 335.745C320.874 334.848 321.589 334.281 322.883 334.179L323.746 334.11C324.768 334.02 325.165 333.804 325.165 333.339C325.165 332.521 324.506 332.022 323.439 332.022C322.361 332.022 321.669 332.533 321.589 333.395H321.01C321.112 332.26 322.055 331.522 323.451 331.522C324.87 331.522 325.755 332.249 325.755 333.463V337.221H325.188ZM321.442 335.734C321.442 336.415 321.93 336.835 322.826 336.835C323.757 336.835 324.677 336.403 325.165 335.541V334.076C324.938 334.349 324.518 334.496 323.791 334.553L323.031 334.621C321.986 334.712 321.442 335.041 321.442 335.734ZM327.712 337.221V329.161H328.313V337.221H327.712ZM330.361 337.221V331.625H330.963V337.221H330.361ZM330.645 330.319C330.395 330.319 330.213 330.126 330.213 329.888C330.213 329.649 330.395 329.468 330.645 329.468C330.883 329.468 331.076 329.649 331.076 329.888C331.076 330.126 330.883 330.319 330.645 330.319ZM335.235 337.312C333.589 337.312 332.67 336.608 332.477 335.404H333.067C333.294 336.347 333.987 336.823 335.235 336.823C336.507 336.823 337.233 336.324 337.222 335.654C337.21 335.075 336.836 334.826 335.757 334.712L334.441 334.576C333.374 334.462 332.704 334.088 332.704 333.18C332.704 332.237 333.691 331.522 335.088 331.522C336.529 331.522 337.426 332.135 337.653 333.202H337.063C336.79 332.396 336.155 332.01 335.099 332.01C334.055 332.01 333.305 332.476 333.305 333.134C333.305 333.736 333.782 333.94 334.588 334.031L335.882 334.179C337.312 334.337 337.823 334.792 337.823 335.62C337.823 336.574 336.836 337.312 335.235 337.312ZM342.089 337.323C341.091 337.323 339.978 336.903 339.978 335.143V332.124H338.355V331.625H340.012V330.285H340.58V331.625H343.02V332.124H340.58V335.087C340.58 336.517 341.42 336.789 342.158 336.789C342.419 336.789 342.736 336.744 343.1 336.63V337.164C342.736 337.289 342.396 337.323 342.089 337.323Z" fill="black"/>
<defs>
<linearGradient id="paint0_linear_671_12663" x1="19.3135" y1="320.124" x2="315.709" y2="320.124" gradientUnits="userSpaceOnUse">
<stop stop-color="#3F72E2"/>
<stop offset="1" stop-color="#3F72E2" stop-opacity="0"/>
</linearGradient>
</defs>
</svg>
