<svg width="348" height="46" viewBox="0 0 348 46" fill="none" xmlns="http://www.w3.org/2000/svg">
<g clip-path="url(#clip0_934_26118)">
<path d="M0.319824 23.7695H11.0398C14.3598 23.7695 16.7758 25.7775 16.7758 29.1295C16.7758 31.1695 15.5518 33.1135 13.3598 33.8975C16.0238 34.5855 17.6878 36.5295 17.6878 39.6335C17.6878 43.2415 15.0878 45.4015 11.3278 45.4015H0.319824V23.7695ZM11.4558 33.5855C13.9038 33.5855 15.8158 31.6415 15.8158 29.1615C15.8158 26.3695 13.8398 24.6495 10.8958 24.6495H1.26382V33.5855H11.4558ZM16.7198 39.6015C16.7198 36.3135 14.5278 34.4575 11.7678 34.4575H1.26382V44.5215H11.1358C14.5518 44.5215 16.7198 42.8895 16.7198 39.6015Z" fill="black"/>
<path d="M29.2239 23.7695H39.4719C43.4879 23.7695 46.9039 25.5215 46.9039 30.3535C46.9039 34.3695 44.1759 36.4655 40.7599 36.8735L46.6239 45.4015H45.5599L39.6959 36.9375H30.1679V45.4015H29.2239V23.7695ZM39.2799 36.0575C42.9759 36.0575 45.9279 34.3295 45.9279 30.3535C45.9279 26.0575 42.9839 24.6495 39.2799 24.6495H30.1599V36.0575H39.2799Z" fill="black"/>
<path d="M65.2638 23.7695H66.4558L75.8318 45.4015H74.7998L72.1038 39.0975H59.5998L56.9038 45.4015H55.9038L65.2798 23.7695H65.2638ZM71.7278 38.2255L65.8638 24.5295L59.9678 38.2255H71.7198H71.7278Z" fill="black"/>
<path d="M86.2 23.7695H87.144L103.128 43.9295V23.7695H104.072V45.4015H103.128L87.144 25.2175V45.4015H86.2V23.7695Z" fill="black"/>
<path d="M116.984 23.7695H124.224C130.648 23.7695 135.416 27.7535 135.416 34.5855C135.416 41.4175 130.648 45.4015 124.224 45.4015H116.984V23.7695ZM124.256 44.5215C130.12 44.5215 134.448 40.7615 134.448 34.5855C134.448 28.7855 130.432 24.6495 124.256 24.6495H117.92V44.5215H124.256Z" fill="black"/>
<path d="M146.912 23.7695H147.856V45.4015H146.912V23.7695Z" fill="black"/>
<path d="M160.768 23.7695H161.712L177.696 43.9295V23.7695H178.632V45.4015H177.696L161.712 25.2175V45.4015H160.768V23.7695Z" fill="black"/>
<path d="M190.136 34.7135C190.136 28.6015 194.336 23.5215 200.512 23.5215C205.712 23.5215 209.384 26.4975 210.296 31.2015H209.352C208.408 27.0015 205.184 24.4015 200.512 24.4015C194.96 24.4015 191.112 29.0735 191.112 34.7135C191.112 40.3535 194.656 44.7775 200.512 44.7775C207.192 44.7775 209.416 39.7615 209.512 35.5935H200.512V34.7135H210.544C210.544 40.6415 207.568 45.6575 200.512 45.6575C194.056 45.6575 190.136 40.6415 190.136 34.7135Z" fill="black"/>
<path d="M227 24.6495H218V23.7695H236.936V24.6495H227.936V45.4015H226.992V24.6495H227Z" fill="black"/>
<path d="M243.672 34.5535C243.672 28.3775 248.44 23.5215 254.456 23.5215C260.472 23.5215 265.176 28.0655 265.176 34.5535C265.176 41.0415 260.44 45.6495 254.456 45.6495C248.12 45.6495 243.672 41.1695 243.672 34.5535ZM264.2 34.5535C264.2 28.5935 260.184 24.3935 254.448 24.3935C248.712 24.3935 244.64 28.8415 244.64 34.5535C244.64 40.6655 248.688 44.7695 254.448 44.7695C259.904 44.7695 264.2 40.3775 264.2 34.5535Z" fill="#F90606"/>
<path d="M275.2 34.5535C275.2 28.3775 279.968 23.5215 285.984 23.5215C292 23.5215 296.704 28.0655 296.704 34.5535C296.704 41.0415 291.968 45.6495 285.984 45.6495C279.648 45.6495 275.2 41.1695 275.2 34.5535ZM295.736 34.5535C295.736 28.5935 291.72 24.3935 285.984 24.3935C280.248 24.3935 276.176 28.8415 276.176 34.5535C276.176 40.6655 280.224 44.7695 285.984 44.7695C291.44 44.7695 295.736 40.3775 295.736 34.5535Z" fill="black"/>
<path d="M308.176 23.7695H309.12V44.5215H322.696V45.4015H308.184V23.7695H308.176Z" fill="black"/>
<path d="M329.768 38.7856H330.68C331.336 42.7056 334.376 44.7696 339.456 44.7696C344.032 44.7696 347.04 42.7296 347.04 39.7216C347.04 37.0576 345.256 35.7056 341.368 35.1776L337.168 34.6096C332.432 33.9856 330.552 32.5696 330.552 29.4336C330.552 26.0496 334.064 23.6016 338.768 23.6016C343.944 23.6016 346.824 25.7616 347.512 30.0896H346.6C345.944 26.3616 343.312 24.4816 338.76 24.4816C334.624 24.4816 331.488 26.5536 331.488 29.4016C331.488 32.0336 332.992 33.1296 337.288 33.6976L341.488 34.2656C345.936 34.8576 347.976 36.4896 347.976 39.6896C347.976 43.2016 344.528 45.6496 339.448 45.6496C333.776 45.6496 330.392 43.2336 329.76 38.7856H329.768Z" fill="black"/>
<path d="M2.32 7.12872V9.90472H6.896C7.656 9.90472 8.192 9.84872 8.496 9.72872C9.024 9.53672 9.288 9.12872 9.288 8.51272C9.288 7.91272 9.024 7.51272 8.496 7.32072C8.168 7.19272 7.632 7.12872 6.896 7.12872H2.32ZM2.32 2.23272V5.00872H6.576C7.352 5.00872 7.888 4.94472 8.192 4.83272C8.712 4.64072 8.976 4.24072 8.976 3.62472C8.976 3.00872 8.712 2.62472 8.192 2.42472C7.864 2.28872 7.328 2.23272 6.576 2.23272H2.32ZM0 12.0087V0.136719H6.576C7.944 0.136719 9.04 0.376719 9.848 0.864719C10.816 1.46472 11.304 2.38472 11.304 3.63272C11.304 4.70472 10.928 5.48872 10.184 5.99272C11.136 6.48072 11.616 7.32072 11.616 8.51272C11.616 9.77672 11.128 10.6967 10.16 11.2727C9.344 11.7607 8.256 12.0007 6.888 12.0007H0V12.0087Z" fill="#231F20"/>
<path d="M13.248 0.136719H22.544V2.23272H15.568V5.00872H21.768V7.12872H15.568V9.90472H22.544V12.0087H13.248V0.136719Z" fill="#231F20"/>
<path d="M26.2321 4.00872V12.0087H23.9041V0.136719H26.0401L32.4161 8.12872V0.136719H34.7441V12.0087H32.6081L26.2321 4.00872Z" fill="#231F20"/>
<path d="M38.8639 2.23272V9.90472H42.3359C43.4959 9.90472 44.3919 9.53672 45.0159 8.80072C45.5599 8.12072 45.8319 7.21672 45.8319 6.08072C45.8319 4.94472 45.5599 4.03272 45.0159 3.34472C44.3919 2.60872 43.4959 2.24072 42.3359 2.24072H38.8639V2.23272ZM36.5359 12.0087V0.136719H42.3359C44.1359 0.136719 45.5599 0.704719 46.6319 1.83272C47.6559 2.91272 48.1599 4.32872 48.1599 6.08072C48.1599 7.83272 47.6559 9.24072 46.6319 10.3127C45.5679 11.4407 44.1359 12.0087 42.3359 12.0087H36.5359Z" fill="#231F20"/>
<path d="M52.04 0.136719H49.72V12.0087H52.04V0.136719Z" fill="#231F20"/>
<path d="M59.5999 12.0087H57.2719V2.23272H53.4319V0.136719H63.4879V2.23272H59.5999V12.0087Z" fill="#231F20"/>
<path d="M88.2001 6.08072C88.2001 4.70472 87.8801 3.58472 87.2481 2.69672C86.5441 1.71272 85.4881 1.21672 84.0881 1.21672H80.0081V10.9207H84.0881C85.4881 10.9207 86.5441 10.4327 87.2481 9.44072C87.8881 8.57672 88.2001 7.46472 88.2001 6.08072ZM89.2961 6.08072C89.2961 7.75272 88.8801 9.12872 88.0561 10.2087C87.1281 11.4087 85.8081 12.0087 84.0881 12.0087H78.9041V0.136719H84.0881C85.8081 0.136719 87.1281 0.736719 88.0561 1.93672C88.8881 3.02472 89.2961 4.40872 89.2961 6.08072Z" fill="#231F20"/>
<path d="M90.824 12.0087V0.136719H98.888V1.21672H91.928V5.53672H98.12V6.61672H91.928V10.9207H98.888V12.0087H90.824Z" fill="#231F20"/>
<path d="M109.28 8.76909C109.28 9.92909 108.76 10.7931 107.72 11.3371C106.888 11.7851 105.84 12.0091 104.56 12.0091C103.528 12.0091 102.632 11.8651 101.888 11.5851C100.944 11.2091 100.312 10.6331 100 9.84909L101.08 9.56909C101.48 10.4651 102.64 10.9131 104.56 10.9131C106.976 10.9131 108.184 10.1931 108.184 8.76109C108.184 7.32909 106.976 6.61709 104.56 6.61709C103.264 6.61709 102.2 6.39309 101.376 5.93709C100.336 5.39309 99.824 4.53709 99.824 3.36909C99.824 2.20109 100.344 1.38509 101.376 0.817094C102.208 0.353094 103.264 0.121094 104.56 0.121094C105.568 0.121094 106.448 0.265094 107.192 0.545094C108.16 0.921094 108.792 1.49709 109.088 2.27309L108.008 2.55309C107.6 1.65709 106.448 1.20109 104.56 1.20109C102.128 1.20109 100.912 1.92109 100.912 3.36109C100.912 4.80109 102.136 5.52109 104.56 5.52109C105.856 5.52109 106.912 5.74509 107.72 6.18509C108.76 6.74509 109.28 7.60109 109.28 8.75309V8.76909Z" fill="#231F20"/>
<path d="M111.872 0.136719H110.776V12.0087H111.872V0.136719Z" fill="#231F20"/>
<path d="M122.784 9.57672C121.712 11.2007 120.336 12.0087 118.672 12.0087C117.008 12.0087 115.664 11.4087 114.736 10.2087C113.904 9.16072 113.488 7.78472 113.488 6.08072C113.488 4.37672 113.904 2.99272 114.736 1.93672C115.664 0.736719 116.968 0.136719 118.672 0.136719C120.888 0.136719 122.432 1.11272 123.296 3.05672L122.224 3.34472C121.56 1.92872 120.376 1.22472 118.664 1.22472C117.288 1.22472 116.24 1.72072 115.504 2.70472C114.888 3.56872 114.576 4.69672 114.576 6.08872C114.576 7.48072 114.88 8.59272 115.504 9.44872C116.24 10.4327 117.296 10.9287 118.664 10.9287C119.936 10.9287 120.936 10.5047 121.656 9.64872C122.264 8.89672 122.64 7.88872 122.776 6.62472H118.896V5.54472C118.896 5.54472 123.864 5.51272 123.864 5.54472C123.864 7.70472 122.768 9.57672 122.768 9.57672H122.784Z" fill="#231F20"/>
<path d="M133.84 12.0087L126.528 1.89672V12.0087H125.432V0.136719H126.624L133.968 10.2647V0.136719H135.032V12.0087H133.84Z" fill="#231F20"/>
<path d="M69.6318 0C66.1278 0 63.2878 2.72 63.2878 6.08C63.2878 9.44 66.1278 12.152 69.6318 12.152C73.1358 12.152 75.9758 9.432 75.9758 6.08C75.9758 2.728 73.1358 0 69.6318 0ZM69.6318 9.96C67.3918 9.96 65.5838 8.224 65.5838 6.08C65.5838 3.936 67.3918 2.208 69.6318 2.208C71.8718 2.208 73.6798 3.944 73.6798 6.08C73.6798 8.216 71.8718 9.96 69.6318 9.96Z" fill="#231F20"/>
</g>
<defs>
<clipPath id="clip0_934_26118">
<rect width="347.984" height="45.648" fill="white"/>
</clipPath>
</defs>
</svg>
