<svg width="851" height="850" viewBox="0 0 851 850" fill="none" xmlns="http://www.w3.org/2000/svg">
<path opacity="0.3" d="M434.511 496.362C430.299 496.883 426.864 500.286 426.864 504.531V553.818C426.864 558.1 430.348 561.589 434.621 561.324C456.863 559.943 478.033 553.035 496.535 541.262C500.143 538.967 500.904 534.102 498.39 530.643L469.372 490.706C466.876 487.269 462.092 486.536 458.376 488.595C451.138 492.605 443.074 495.303 434.511 496.362Z" fill="#9D84B6"/>
<path opacity="0.3" d="M434.571 628.321C430.314 628.495 426.864 631.936 426.864 636.197V685.465C426.864 689.74 430.336 693.215 434.609 693.084C467.175 692.087 498.763 685.203 528.623 672.584C544.625 665.82 559.788 657.564 574.01 647.887C577.542 645.483 578.304 640.635 575.793 637.179L546.829 597.31C544.322 593.859 539.5 593.105 535.951 595.473C506 615.452 471.178 626.831 434.571 628.321Z" fill="#BDA7D3"/>
<path opacity="0.3" d="M434.557 562.426C430.309 562.686 426.864 566.118 426.864 570.374V619.642C426.864 623.919 430.34 627.399 434.613 627.223C470.965 625.727 505.547 614.428 535.293 594.593C538.847 592.223 539.607 587.373 537.096 583.917L508.125 544.039C505.62 540.59 500.808 539.842 497.213 542.133C478.499 554.062 457.071 561.051 434.557 562.426Z" fill="#AC91C8"/>
<path opacity="0.3" d="M529.048 673.592C529.049 673.593 529.049 673.596 529.047 673.596C499.042 686.274 467.302 693.185 434.578 694.179C430.317 694.309 426.864 697.755 426.864 702.018V751.278C426.864 755.552 430.334 759.025 434.606 758.92C476.064 757.906 516.273 749.276 554.252 733.227C574.905 724.5 594.445 713.778 612.725 701.169C616.241 698.743 617.003 693.898 614.493 690.443L585.521 650.57C583.014 647.119 578.192 646.362 574.666 648.762C560.371 658.493 545.132 666.794 529.049 673.588C529.047 673.589 529.047 673.591 529.048 673.592Z" fill="#C7B5DA"/>
<path opacity="0.3" d="M394.255 488.598C390.539 486.538 385.754 487.27 383.256 490.708L354.24 530.643C351.726 534.102 352.488 538.967 356.096 541.262C374.597 553.035 395.767 559.943 418.009 561.324C422.283 561.589 425.766 558.1 425.766 553.818V504.531C425.766 500.286 422.331 496.884 418.119 496.363C409.555 495.305 401.493 492.609 394.255 488.598Z" fill="#795A97"/>
<path opacity="0.3" d="M355.417 542.133C351.823 539.842 347.011 540.59 344.505 544.039L315.535 583.916C313.024 587.372 313.785 592.223 317.339 594.593C347.089 614.424 381.666 625.727 418.017 627.223C422.291 627.399 425.766 623.919 425.766 619.642V570.374C425.766 566.118 422.322 562.686 418.073 562.426C395.56 561.051 374.132 554.062 355.417 542.133Z" fill="#8563A6"/>
<path opacity="0.3" d="M316.679 595.473C313.13 593.105 308.309 593.859 305.801 597.31L276.838 637.178C274.327 640.635 275.09 645.483 278.623 647.887C292.848 657.564 308.011 665.82 324.008 672.584C353.867 685.203 385.455 692.087 418.021 693.084C422.295 693.215 425.766 689.74 425.766 685.465V636.197C425.766 631.936 422.317 628.495 418.06 628.321C381.452 626.831 346.631 615.452 316.679 595.473Z" fill="#9D82B8"/>
<path opacity="0.3" d="M323.577 673.596C323.578 673.595 323.578 673.592 323.576 673.592C307.493 666.794 292.254 658.495 277.959 648.766C274.433 646.366 269.611 647.123 267.104 650.574L238.133 690.446C235.622 693.902 236.385 698.747 239.901 701.172C258.184 713.782 277.719 724.504 298.373 733.231C336.351 749.28 376.561 757.91 418.019 758.924C422.291 759.028 425.761 755.556 425.761 751.282V702.022C425.761 697.759 422.308 694.313 418.047 694.183C385.323 693.189 353.583 686.278 323.578 673.6C323.576 673.599 323.575 673.597 323.577 673.596Z" fill="#AD96C3"/>
<path opacity="0.3" d="M366.218 458.645C364.414 454.806 360.117 452.594 356.082 453.905L309.122 469.165C305.054 470.487 302.811 474.872 304.385 478.849C310.886 495.281 320.742 510.356 333.605 523.219C336.516 526.131 339.543 528.887 342.673 531.486C345.971 534.224 350.846 533.451 353.366 529.983L382.381 490.046C384.873 486.615 384.1 481.848 381.004 478.951C374.875 473.214 369.83 466.331 366.218 458.645Z" fill="#2D56B2"/>
<path opacity="0.3" d="M286.277 570.54C286.278 570.54 286.278 570.539 286.277 570.538C265.812 550.073 250.387 525.905 240.615 499.534C239.133 495.535 234.791 493.312 230.734 494.63L183.901 509.847C179.835 511.168 177.602 515.543 179.05 519.565C180.652 524.018 182.378 528.435 184.23 532.813C197.453 564.102 216.385 592.193 240.5 616.314C248.325 624.138 256.569 631.414 265.204 638.129C268.581 640.755 273.437 639.986 275.952 636.524L304.923 596.647C307.424 593.205 306.661 588.399 303.329 585.753C297.403 581.046 291.708 575.974 286.276 570.542C286.275 570.542 286.276 570.54 286.277 570.54Z" fill="#5A7FD0"/>
<path opacity="0.3" d="M332.835 523.991C332.833 523.992 332.831 523.992 332.829 523.991C319.832 510.992 309.881 495.756 303.326 479.146C301.762 475.183 297.43 472.962 293.378 474.278L246.491 489.512C242.427 490.833 240.19 495.206 241.676 499.212C251.395 525.413 266.729 549.426 287.064 569.761C292.437 575.135 298.071 580.154 303.933 584.817C307.286 587.483 312.152 586.714 314.67 583.249L343.638 543.374C346.137 539.934 345.373 535.139 342.098 532.427C338.901 529.777 335.811 526.965 332.84 523.991C332.839 523.989 332.836 523.989 332.835 523.991Z" fill="#315FC4"/>
<path opacity="0.3" d="M239.733 617.087C215.514 592.867 196.504 564.661 183.226 533.24C181.359 528.822 179.62 524.364 178.004 519.873C176.562 515.863 172.218 513.646 168.165 514.963L121.289 530.195C117.224 531.515 114.994 535.888 116.415 539.919C118.613 546.15 121.002 552.327 123.588 558.447C140.124 597.573 163.801 632.706 193.96 662.865C204.242 673.148 215.1 682.674 226.499 691.42C229.892 694.023 234.743 693.254 237.256 689.795L266.229 649.92C268.733 646.474 267.97 641.661 264.607 639.047C255.913 632.29 247.613 624.967 239.738 617.092L239.733 617.087Z" fill="#7594D7"/>
<path opacity="0.3" d="M228.325 430.509C228.325 412.23 230.792 394.332 235.55 377.192C236.688 373.091 234.481 368.755 230.433 367.44L183.569 352.211C179.502 350.889 175.124 353.118 173.933 357.225C167.073 380.892 163.608 405.429 163.608 430.509C163.608 455.59 167.073 480.126 173.933 503.794C175.124 507.901 179.502 510.129 183.569 508.808L230.433 493.579C234.481 492.264 236.688 487.927 235.55 483.826C230.792 466.686 228.325 448.788 228.325 430.509Z" fill="#658EE8"/>
<path opacity="0.3" d="M294.139 430.509C294.139 419.239 295.544 408.189 298.259 397.551C299.31 393.432 297.11 389.105 293.067 387.791L246.177 372.557C242.105 371.234 237.718 373.469 236.575 377.595C231.862 394.606 229.422 412.368 229.422 430.509C229.422 448.65 231.862 466.412 236.575 483.423C237.718 487.549 242.105 489.785 246.177 488.462L293.064 473.228C297.108 471.914 299.308 467.585 298.256 463.465C295.54 452.828 294.139 441.779 294.139 430.509Z" fill="#3F72E2"/>
<path opacity="0.3" d="M359.953 430.51C359.953 426.22 360.363 422.022 361.145 417.956C361.948 413.786 359.772 409.466 355.734 408.154L308.812 392.908C304.735 391.584 300.335 393.826 299.279 397.98C296.612 408.481 295.23 419.386 295.23 430.51C295.23 441.634 296.609 452.541 299.278 463.042C300.334 467.196 304.733 469.436 308.809 468.112L355.735 452.865C359.773 451.553 361.948 447.234 361.146 443.065C360.363 438.998 359.953 434.8 359.953 430.51Z" fill="#3968CE"/>
<path opacity="0.3" d="M162.512 430.507C162.512 405.305 165.996 380.639 172.899 356.855C174.088 352.761 171.877 348.414 167.823 347.096L120.95 331.866C116.884 330.545 112.509 332.772 111.293 336.87C102.326 367.082 97.7949 398.443 97.7949 430.507C97.7949 462.571 102.326 493.937 111.293 524.145C112.509 528.243 116.884 530.47 120.95 529.149L167.824 513.918C171.878 512.601 174.089 508.254 172.901 504.161C166.001 480.377 162.512 455.71 162.512 430.507Z" fill="#7EA1EC"/>
<path opacity="0.3" d="M286.283 290.484C286.282 290.484 286.282 290.483 286.283 290.482C291.715 285.05 297.41 279.979 303.336 275.272C306.668 272.625 307.431 267.82 304.929 264.377L275.958 224.498C273.443 221.037 268.589 220.268 265.212 222.893C256.576 229.607 248.332 236.886 240.507 244.711C216.392 268.826 197.454 296.923 184.237 328.212C182.385 332.592 180.66 337.008 179.058 341.458C177.61 345.481 179.843 349.857 183.909 351.178L230.741 366.395C234.797 367.713 239.14 365.49 240.622 361.49C250.394 335.119 265.819 310.952 286.284 290.486C286.285 290.486 286.284 290.484 286.283 290.484Z" fill="#84A8F3"/>
<path opacity="0.3" d="M332.83 337.026C332.831 337.028 332.834 337.028 332.835 337.026C335.811 334.051 338.904 331.239 342.103 328.588C345.374 325.878 346.135 321.087 343.638 317.65L314.663 277.766C312.146 274.301 307.281 273.531 303.929 276.196C298.067 280.858 292.433 285.878 287.059 291.256C266.724 311.591 251.395 335.604 241.673 361.804C240.186 365.811 242.423 370.185 246.487 371.505L293.373 386.739C297.426 388.055 301.757 385.834 303.321 381.871C309.876 365.261 319.827 350.025 332.824 337.026C332.826 337.025 332.828 337.025 332.83 337.026Z" fill="#6592F0"/>
<path opacity="0.3" d="M381.005 382.07C384.101 379.172 384.874 374.405 382.382 370.975L353.369 331.04C350.849 327.571 345.971 326.799 342.673 329.539C339.545 332.136 336.519 334.891 333.606 337.801C320.743 350.664 310.887 365.739 304.386 382.171C302.812 386.148 305.055 390.533 309.123 391.855L356.084 407.115C360.118 408.426 364.415 406.215 366.219 402.376C369.831 394.692 374.876 387.807 381.005 382.07Z" fill="#5C85DA"/>
<path opacity="0.3" d="M183.224 327.785C183.226 327.783 183.228 327.781 183.229 327.779C196.506 296.36 215.515 268.154 239.734 243.936C247.608 236.061 255.908 228.738 264.602 221.981C267.965 219.367 268.728 214.554 266.224 211.108L237.252 171.234C234.738 167.774 229.887 167.006 226.494 169.61C215.097 178.356 204.237 187.885 193.955 198.162C163.796 228.321 140.119 263.455 123.584 302.581C120.996 308.702 118.605 314.88 116.407 321.112C114.986 325.142 117.216 329.511 121.28 330.832L168.158 346.064C172.212 347.381 176.556 345.164 177.999 341.153C179.614 336.663 181.354 332.209 183.22 327.791C183.221 327.789 183.223 327.787 183.224 327.785Z" fill="#98B6F5"/>
<path opacity="0.3" d="M418.06 232.698C422.317 232.525 425.766 229.083 425.766 224.822V175.554C425.766 171.279 422.295 167.804 418.021 167.935C385.455 168.933 353.867 175.816 324.008 188.436C308.006 195.199 292.842 203.455 278.621 213.132C275.089 215.536 274.326 220.384 276.837 223.841L305.801 263.709C308.309 267.16 313.13 267.914 316.679 265.547C346.631 245.567 381.452 234.188 418.06 232.698Z" fill="#F26261"/>
<path opacity="0.3" d="M418.119 364.657C422.331 364.136 425.766 360.733 425.766 356.489V307.202C425.766 302.92 422.283 299.43 418.009 299.696C395.767 301.076 374.597 307.985 356.096 319.757C352.488 322.053 351.726 326.917 354.24 330.377L383.258 370.314C385.755 373.751 390.539 374.483 394.254 372.425C401.493 368.414 409.556 365.717 418.119 364.657Z" fill="#D93634"/>
<path opacity="0.3" d="M418.073 298.592C422.322 298.332 425.766 294.9 425.766 290.644V241.376C425.766 237.099 422.291 233.619 418.017 233.795C381.666 235.291 347.088 246.59 317.338 266.425C313.784 268.795 313.024 273.646 315.535 277.102L344.505 316.979C347.011 320.428 351.823 321.176 355.417 318.885C374.132 306.956 395.56 299.967 418.073 298.592Z" fill="#EF3B39"/>
<path opacity="0.3" d="M323.583 187.421C323.581 187.42 323.582 187.417 323.583 187.417C353.589 174.739 385.329 167.828 418.053 166.834C422.314 166.704 425.766 163.258 425.766 158.995V109.735C425.766 105.461 422.297 101.988 418.024 102.093C376.567 103.107 336.357 111.737 298.379 127.786C277.725 136.513 258.19 147.235 239.907 159.844C236.391 162.27 235.628 167.115 238.139 170.571L267.109 210.443C269.617 213.894 274.439 214.651 277.965 212.251C292.259 202.52 307.499 194.219 323.582 187.425C323.584 187.424 323.584 187.422 323.583 187.421Z" fill="#F47C7A"/>
<path opacity="0.3" d="M535.951 265.547C539.5 267.914 544.322 267.16 546.829 263.709L575.793 223.842C578.304 220.385 577.541 215.536 574.008 213.132C559.783 203.455 544.62 195.199 528.623 188.436C498.763 175.816 467.175 168.933 434.609 167.935C430.336 167.804 426.864 171.279 426.864 175.554V224.822C426.864 229.083 430.314 232.525 434.571 232.698C471.178 234.188 506 245.567 535.951 265.547Z" fill="#F9C7ED"/>
<path opacity="0.3" d="M497.213 318.879C500.808 321.171 505.62 320.422 508.125 316.974L537.095 277.097C539.606 273.64 538.846 268.789 535.291 266.419C505.541 246.588 470.964 235.285 434.613 233.789C430.34 233.613 426.864 237.093 426.864 241.37V290.638C426.864 294.894 430.309 298.326 434.558 298.586C457.071 299.961 478.499 306.95 497.213 318.879Z" fill="#F7B9E9"/>
<path opacity="0.3" d="M458.375 372.422C462.091 374.481 466.876 373.749 469.374 370.312L498.39 330.377C500.904 326.917 500.143 322.053 496.535 319.757C478.033 307.985 456.863 301.076 434.621 299.696C430.348 299.43 426.864 302.92 426.864 307.202V356.489C426.864 360.733 430.299 364.136 434.511 364.657C443.075 365.715 451.137 368.41 458.375 372.422Z" fill="#E1A8D4"/>
<path opacity="0.3" d="M529.051 187.418C545.135 194.217 560.376 202.515 574.671 212.246C578.198 214.646 583.02 213.888 585.527 210.438L614.498 170.566C617.009 167.11 616.246 162.264 612.729 159.839C594.446 147.229 574.911 136.507 554.257 127.78C516.274 111.737 476.064 103.107 434.606 102.093C430.334 101.988 426.864 105.461 426.864 109.735V158.995C426.864 163.258 430.317 166.704 434.578 166.834C467.303 167.828 499.045 174.739 529.051 187.418Z" fill="#FBDFF5"/>
<path opacity="0.3" d="M486.411 402.373C488.215 406.213 492.512 408.424 496.547 407.113L543.507 391.853C547.575 390.531 549.817 386.146 548.244 382.169C541.743 365.737 531.887 350.662 519.024 337.799C516.112 334.887 513.086 332.131 509.956 329.532C506.658 326.795 501.782 327.567 499.263 331.035L470.248 370.973C467.756 374.403 468.529 379.17 471.625 382.068C477.754 387.804 482.799 394.687 486.411 402.373Z" fill="#B9B9B9"/>
<path opacity="0.3" d="M566.356 290.48C566.354 290.48 566.353 290.483 566.354 290.484C586.819 310.95 602.242 335.116 612.014 361.486C613.496 365.486 617.839 367.709 621.896 366.391L668.729 351.174C672.795 349.853 675.027 345.478 673.58 341.456C671.977 337.003 670.252 332.586 668.4 328.208C655.177 296.919 636.244 268.828 612.129 244.707C604.306 236.884 596.063 229.609 587.432 222.895C584.054 220.267 579.197 221.036 576.682 224.498L547.713 264.373C545.211 267.816 545.974 272.622 549.306 275.268C555.231 279.974 560.926 285.045 566.357 290.477C566.359 290.478 566.358 290.48 566.356 290.48Z" fill="#D5D5D5"/>
<path opacity="0.3" d="M519.795 337.026C519.797 337.025 519.799 337.025 519.801 337.026C532.798 350.025 542.749 365.261 549.304 381.871C550.868 385.834 555.2 388.055 559.252 386.739L606.14 371.505C610.203 370.185 612.44 365.811 610.954 361.805C601.236 335.604 585.902 311.591 565.566 291.256C560.193 285.883 554.559 280.863 548.697 276.2C545.345 273.534 540.478 274.303 537.96 277.768L508.992 317.643C506.493 321.083 507.258 325.878 510.532 328.591C513.729 331.24 516.819 334.053 519.79 337.026C519.791 337.028 519.794 337.028 519.795 337.026Z" fill="#CBCBCB"/>
<path opacity="0.3" d="M612.896 243.927C637.115 268.147 656.124 296.353 669.402 327.774C671.269 332.192 673.009 336.65 674.624 341.141C676.067 345.151 680.411 347.368 684.464 346.051L731.34 330.819C735.405 329.499 737.635 325.126 736.213 321.095C734.015 314.864 731.627 308.687 729.04 302.567C712.505 263.441 688.828 228.308 658.669 198.149C648.387 187.866 637.529 178.34 626.129 169.594C622.737 166.991 617.886 167.76 615.373 171.219L586.399 211.094C583.896 214.54 584.659 219.353 588.022 221.967C596.715 228.724 605.016 236.047 612.89 243.922L612.896 243.927Z" fill="#DCDCDC"/>
<path opacity="0.3" d="M492.676 430.51C492.676 434.799 492.266 438.997 491.484 443.063C490.682 447.233 492.857 451.553 496.895 452.865L543.817 468.111C547.894 469.435 552.294 467.194 553.35 463.039C556.017 452.538 557.399 441.633 557.399 430.51C557.399 419.385 556.02 408.479 553.351 397.977C552.295 393.823 547.896 391.583 543.82 392.908L496.894 408.154C492.856 409.466 490.681 413.785 491.483 417.954C492.266 422.022 492.676 426.219 492.676 430.51Z" fill="#6E9579"/>
<path opacity="0.3" d="M624.304 430.509C624.304 448.788 621.837 466.686 617.079 483.826C615.941 487.927 618.148 492.264 622.196 493.579L669.06 508.808C673.126 510.129 677.505 507.901 678.696 503.794C685.556 480.126 689.02 455.59 689.02 430.509C689.02 405.429 685.556 380.892 678.696 357.225C677.505 353.118 673.126 350.889 669.06 352.211L622.196 367.44C618.148 368.755 615.941 373.091 617.079 377.192C621.837 394.332 624.304 412.23 624.304 430.509Z" fill="#94B69D"/>
<path opacity="0.3" d="M558.49 430.509C558.49 441.779 557.084 452.83 554.37 463.468C553.318 467.586 555.519 471.914 559.561 473.227L606.451 488.462C610.523 489.785 614.911 487.549 616.054 483.423C620.766 466.412 623.206 448.65 623.206 430.509C623.206 412.368 620.766 394.606 616.054 377.595C614.911 373.469 610.523 371.234 606.451 372.557L559.564 387.79C555.52 389.104 553.32 393.433 554.372 397.553C557.088 408.19 558.49 419.24 558.49 430.509Z" fill="#79A485"/>
<path opacity="0.3" d="M690.117 430.507C690.117 455.71 686.633 480.376 679.729 504.16C678.541 508.254 680.752 512.601 684.806 513.919L731.679 529.149C735.744 530.47 740.119 528.243 741.335 524.145C750.302 493.933 754.834 462.571 754.834 430.507C754.834 398.444 750.303 367.078 741.336 336.87C740.119 332.772 735.744 330.545 731.679 331.866L684.804 347.097C680.751 348.414 678.54 352.761 679.728 356.854C686.628 380.638 690.117 405.305 690.117 430.507Z" fill="#A5C2AD"/>
<path opacity="0.3" d="M566.344 570.542C566.346 570.542 566.347 570.545 566.346 570.546C560.914 575.978 555.22 581.049 549.294 585.755C545.962 588.401 545.2 593.206 547.701 596.649L576.673 636.528C579.187 639.989 584.042 640.759 587.419 638.133C596.054 631.42 604.297 624.14 612.117 616.316C636.233 592.2 655.171 564.104 668.388 532.815C670.239 528.435 671.964 524.018 673.566 519.568C675.014 515.545 672.782 511.17 668.716 509.849L621.884 494.632C617.827 493.314 613.485 495.537 612.003 499.536C602.231 525.907 586.807 550.073 566.343 570.538C566.341 570.54 566.342 570.542 566.344 570.542Z" fill="#75B7C1"/>
<path opacity="0.3" d="M519.8 523.999C519.799 523.997 519.796 523.997 519.795 523.999C516.819 526.974 513.726 529.786 510.527 532.437C507.256 535.147 506.495 539.938 508.992 543.375L537.967 583.259C540.484 586.724 545.349 587.494 548.701 584.829C554.563 580.167 560.197 575.147 565.571 569.769C585.906 549.434 601.236 525.421 610.957 499.221C612.444 495.214 610.207 490.84 606.143 489.52L559.257 474.286C555.205 472.97 550.873 475.191 549.309 479.154C542.754 495.764 532.803 511 519.806 523.999C519.804 524 519.802 524 519.8 523.999Z" fill="#52A5B1"/>
<path opacity="0.3" d="M471.624 478.948C468.529 481.846 467.756 486.613 470.248 490.044L499.261 529.978C501.781 533.447 506.659 534.219 509.957 531.48C513.085 528.882 516.111 526.127 519.024 523.217C531.887 510.355 541.743 495.279 548.244 478.847C549.817 474.87 547.575 470.485 543.507 469.164L496.546 453.903C492.512 452.592 488.215 454.803 486.41 458.642C482.798 466.326 477.754 473.211 471.624 478.948Z" fill="#4B96A1"/>
<path opacity="0.3" d="M669.4 533.245C669.399 533.247 669.397 533.249 669.396 533.251C656.118 564.67 637.11 592.876 612.891 617.094C605.016 624.969 596.716 632.292 588.023 639.049C584.66 641.663 583.897 646.476 586.4 649.922L615.373 689.796C617.887 693.255 622.738 694.024 626.131 691.42C637.527 682.673 648.388 673.145 658.67 662.867C688.829 632.708 712.506 597.575 729.041 558.449C731.628 552.328 734.02 546.15 736.218 539.917C737.639 535.888 735.408 531.518 731.345 530.198L684.467 514.966C680.413 513.648 676.068 515.866 674.626 519.877C673.011 524.367 671.271 528.821 669.405 533.238C669.404 533.241 669.402 533.243 669.4 533.245Z" fill="#8BC3CB"/>
<path d="M190.562 106.732L424.3 428.867" stroke="#F6F4EE" stroke-width="5.09976"/>
<path d="M665.568 104.547L427.252 426.247" stroke="#F6F4EE" stroke-width="5.09976"/>
<path d="M428.553 430.295L818.136 559.275" stroke="#F6F4EE" stroke-width="5.09976"/>
<path d="M426.509 30.2363L426.509 462.507" stroke="#F6F4EE" stroke-width="5.09976"/>
<path d="M811.762 306.412L395.9 438.642" stroke="#F6F4EE" stroke-width="5.09976"/>
<path d="M667.999 763.137L428.43 433.48" stroke="#F6F4EE" stroke-width="5.09976"/>
<path d="M424.3 433.184L179.392 770.915" stroke="#F6F4EE" stroke-width="5.09976"/>
<path d="M408.577 415.979V405.422H410.949V409.706H416.518V405.422H418.889V415.979H416.518V411.634H410.949V415.979H408.577ZM421.093 415.979V408.206H423.465V415.979H421.093ZM422.256 407.243C421.522 407.243 420.971 406.707 420.971 405.973C420.971 405.254 421.522 404.718 422.256 404.718C423.021 404.718 423.556 405.254 423.556 405.973C423.556 406.707 423.021 407.243 422.256 407.243ZM429.017 418.717C427.87 418.717 426.738 418.488 425.743 418.013V416.04C426.508 416.621 427.61 416.988 428.956 416.988C430.532 416.988 431.45 416.361 431.45 415.045V414.387C430.93 415.229 429.996 415.627 428.91 415.627C426.676 415.627 425.131 414.081 425.131 411.832C425.131 409.599 426.676 408.038 428.91 408.038C429.935 408.038 430.93 408.39 431.496 409.369V408.206H433.806V414.525C433.806 417.31 431.909 418.717 429.017 418.717ZM427.548 411.863C427.548 413.102 428.405 413.852 429.568 413.852C430.272 413.852 431.037 413.546 431.45 413.026V410.731C431.037 410.211 430.272 409.889 429.568 409.889C428.405 409.889 427.548 410.624 427.548 411.863ZM441.973 412.092C441.973 410.853 441.315 410.058 440.152 410.058C439.372 410.058 438.683 410.44 438.285 411.067V415.979H435.929V405.116H438.285V409.538C438.714 408.788 439.617 408.038 441.101 408.038C443.197 408.038 444.329 409.43 444.329 411.787V415.979H441.973V412.092ZM374.348 433.979V423.422H380.009C382.931 423.422 384.017 425.243 384.017 427.155C384.017 429.067 382.931 430.949 380.009 430.949H376.72V433.979H374.348ZM376.72 429.022H379.733C380.881 429.022 381.646 428.333 381.646 427.186C381.646 426.038 380.881 425.365 379.733 425.365H376.72V429.022ZM389.225 434.147C386.671 434.147 384.88 432.525 384.88 430.215C384.88 427.767 386.732 426.038 389.256 426.038C391.796 426.038 393.509 427.583 393.525 429.924C393.525 430.215 393.525 430.429 393.509 430.536H387.221C387.359 431.806 388.139 432.403 389.287 432.403C390.251 432.403 390.939 432.005 391.23 431.301H393.479C393.02 432.984 391.429 434.147 389.225 434.147ZM387.298 429.205H391.245C391.077 428.257 390.388 427.691 389.333 427.691C388.338 427.691 387.573 428.241 387.298 429.205ZM397.466 427.507C397.787 426.665 398.644 426.038 399.73 426.038C399.959 426.038 400.265 426.069 400.418 426.145V428.241C400.327 428.195 400.036 428.149 399.761 428.149C398.843 428.149 398.001 428.455 397.542 429.159V433.979H395.186V426.206H397.45V427.538H397.466V427.507ZM401.023 428.134V426.206H402.767C402.844 424.003 404.435 422.948 406.347 422.948C406.944 422.948 407.51 423.055 407.923 423.223V424.83C407.571 424.707 407.143 424.661 406.76 424.661C405.689 424.661 405.139 425.243 405.123 426.206H407.816V428.134H405.123V433.979H402.767V428.134H401.023ZM412.639 434.147C410.053 434.147 408.218 432.479 408.218 430.138C408.218 427.782 410.084 426.038 412.639 426.038C415.209 426.038 417.076 427.706 417.076 430.031C417.076 432.387 415.194 434.147 412.639 434.147ZM412.639 432.296C413.832 432.296 414.704 431.362 414.704 430.092C414.704 428.838 413.832 427.889 412.639 427.889C411.461 427.889 410.589 428.838 410.589 430.092C410.589 431.362 411.461 432.296 412.639 432.296ZM420.997 427.507C421.319 426.665 422.175 426.038 423.262 426.038C423.491 426.038 423.797 426.069 423.95 426.145V428.241C423.858 428.195 423.568 428.149 423.292 428.149C422.374 428.149 421.533 428.455 421.074 429.159V433.979H418.718V426.206H420.982V427.538H420.997V427.507ZM437.024 429.985C437.024 428.807 436.488 428.058 435.356 428.058C434.576 428.058 433.948 428.471 433.551 429.098L433.581 429.695V433.979H431.195V429.985C431.195 428.807 430.567 428.058 429.558 428.058C428.777 428.058 428.135 428.471 427.752 429.067V433.979H425.396V426.206H427.66V427.629H427.676V427.599C428.119 426.88 428.976 426.038 430.521 426.038C431.822 426.038 432.77 426.635 433.229 427.752C433.841 426.757 434.729 426.038 436.32 426.038C438.263 426.038 439.38 427.369 439.38 429.695V433.979H437.024V429.985ZM446.645 433.979V432.709C446.079 433.703 445.008 434.147 443.708 434.147C441.979 434.147 440.938 433.305 440.938 431.883C440.938 430.567 442.009 429.771 443.83 429.634L445.1 429.542C446.094 429.465 446.477 429.266 446.477 428.761C446.477 428.104 445.926 427.721 444.931 427.721C443.876 427.721 443.294 428.165 443.218 428.899H441.153C441.26 427.216 442.713 426.038 444.993 426.038C447.257 426.038 448.695 427.124 448.695 429.251V433.979H446.645ZM443.08 431.745C443.08 432.265 443.447 432.602 444.258 432.602C445.161 432.602 446.125 432.081 446.477 431.225V430.322C446.262 430.597 445.895 430.75 445.207 430.812L444.427 430.888C443.616 430.949 443.08 431.163 443.08 431.745ZM456.779 430.154C456.779 428.838 456.136 428.058 454.958 428.058C454.178 428.058 453.489 428.44 453.092 429.067V433.979H450.736V426.206H453.015V427.629V427.599C453.459 426.88 454.331 426.038 455.922 426.038C458.018 426.038 459.135 427.461 459.135 429.787V433.979H456.779V430.154ZM464.958 434.147C462.419 434.147 460.675 432.51 460.675 430.138C460.675 427.752 462.495 426.038 465.004 426.038C467.452 426.038 469.013 427.354 469.166 429.419H467.009C466.825 428.501 466.075 427.966 465.096 427.966C463.842 427.966 463.046 428.838 463.046 430.108C463.046 431.378 463.842 432.219 465.096 432.219C466.075 432.219 466.825 431.684 467.009 430.766H469.166C468.906 432.831 467.315 434.147 464.958 434.147ZM474.627 434.147C472.072 434.147 470.282 432.525 470.282 430.215C470.282 427.767 472.133 426.038 474.657 426.038C477.197 426.038 478.91 427.583 478.926 429.924C478.926 430.215 478.926 430.429 478.91 430.536H472.622C472.76 431.806 473.54 432.403 474.688 432.403C475.652 432.403 476.34 432.005 476.631 431.301H478.88C478.421 432.984 476.83 434.147 474.627 434.147ZM472.699 429.205H476.646C476.478 428.257 475.789 427.691 474.734 427.691C473.739 427.691 472.974 428.241 472.699 429.205ZM383.229 452.162C380.812 452.162 379.144 451.321 379.144 449.255C379.144 447.787 380.154 447.006 381.209 446.486C380.536 445.813 380.138 445.14 380.138 444.099C380.138 442.493 381.469 441.254 383.718 441.254C385.723 441.254 386.916 442.309 386.916 443.916C386.916 445.339 385.723 446.226 384.392 446.853L386.503 448.689C386.84 448.047 387.023 447.266 387.023 446.394H388.981C388.981 447.848 388.645 449.056 388.002 449.99L390.297 451.979H387.574L386.717 451.244C385.799 451.841 384.621 452.162 383.229 452.162ZM381.362 449.163C381.362 450.051 382.127 450.449 383.305 450.449C384.07 450.449 384.713 450.28 385.248 449.99L382.525 447.649C381.852 448.001 381.362 448.429 381.362 449.163ZM382.219 444.145C382.219 444.727 382.525 445.155 383.091 445.706C384.055 445.323 384.942 444.849 384.942 444.008C384.942 443.273 384.407 442.86 383.688 442.86C382.77 442.86 382.219 443.396 382.219 444.145ZM399.105 452.147C396.06 452.147 394.178 450.877 393.964 448.49H396.244C396.427 449.73 397.391 450.387 399.151 450.387C400.726 450.387 401.629 449.867 401.629 449.01C401.629 448.337 401.185 447.909 399.915 447.756L397.865 447.511C395.341 447.22 394.285 446.333 394.285 444.574C394.285 442.631 396.228 441.284 398.906 441.284C401.721 441.284 403.404 442.401 403.725 444.788H401.43C401.216 443.533 400.267 443.044 398.875 443.044C397.575 443.044 396.703 443.549 396.703 444.359C396.703 445.063 397.116 445.4 398.692 445.583L400.757 445.813C402.975 446.058 404.046 447.022 404.046 448.735C404.046 450.755 402.057 452.147 399.105 452.147ZM410.784 452.147C409.56 452.147 408.535 451.55 408.031 450.663V454.549H405.674V444.206H407.939V445.706C408.428 444.711 409.545 444.038 410.861 444.038C412.911 444.038 414.41 445.691 414.41 448.016C414.41 450.403 412.865 452.147 410.784 452.147ZM408.031 449.347C408.459 449.913 409.239 450.265 409.989 450.265C411.198 450.265 412.039 449.362 412.039 448.092C412.039 446.823 411.182 445.92 409.958 445.92C409.193 445.92 408.459 446.272 408.031 446.838V449.347ZM419.929 452.147C417.374 452.147 415.584 450.525 415.584 448.215C415.584 445.767 417.435 444.038 419.959 444.038C422.499 444.038 424.212 445.583 424.228 447.924C424.228 448.215 424.228 448.429 424.212 448.536H417.924C418.062 449.806 418.842 450.403 419.99 450.403C420.954 450.403 421.642 450.005 421.933 449.301H424.182C423.723 450.984 422.132 452.147 419.929 452.147ZM418.001 447.205H421.948C421.78 446.257 421.091 445.691 420.036 445.691C419.041 445.691 418.276 446.241 418.001 447.205ZM429.683 452.147C427.144 452.147 425.4 450.51 425.4 448.138C425.4 445.752 427.22 444.038 429.729 444.038C432.177 444.038 433.738 445.354 433.891 447.419H431.734C431.55 446.501 430.8 445.966 429.821 445.966C428.567 445.966 427.771 446.838 427.771 448.108C427.771 449.378 428.567 450.219 429.821 450.219C430.8 450.219 431.55 449.684 431.734 448.766H433.891C433.631 450.831 432.04 452.147 429.683 452.147ZM435.496 451.979V444.206H437.868V451.979H435.496ZM436.659 443.243C435.924 443.243 435.374 442.707 435.374 441.973C435.374 441.254 435.924 440.718 436.659 440.718C437.424 440.718 437.959 441.254 437.959 441.973C437.959 442.707 437.424 443.243 436.659 443.243ZM445.241 451.979V450.709C444.674 451.703 443.604 452.147 442.303 452.147C440.574 452.147 439.534 451.305 439.534 449.883C439.534 448.567 440.605 447.771 442.425 447.634L443.695 447.542C444.69 447.465 445.072 447.266 445.072 446.761C445.072 446.104 444.521 445.721 443.527 445.721C442.471 445.721 441.89 446.165 441.814 446.899H439.748C439.855 445.216 441.309 444.038 443.588 444.038C445.853 444.038 447.291 445.124 447.291 447.251V451.979H445.241ZM441.676 449.745C441.676 450.265 442.043 450.602 442.854 450.602C443.757 450.602 444.72 450.081 445.072 449.225V448.322C444.858 448.597 444.491 448.75 443.802 448.812L443.022 448.888C442.211 448.949 441.676 449.163 441.676 449.745ZM449.331 451.979V441.116H451.703V451.979H449.331ZM453.843 451.979V444.206H456.215V451.979H453.843ZM455.006 443.243C454.272 443.243 453.721 442.707 453.721 441.973C453.721 441.254 454.272 440.718 455.006 440.718C455.771 440.718 456.306 441.254 456.306 441.973C456.306 442.707 455.771 443.243 455.006 443.243ZM461.951 452.147C459.273 452.147 457.927 451.045 457.789 449.5H460.038C460.176 450.234 460.88 450.525 461.951 450.525C463.022 450.525 463.664 450.25 463.664 449.699C463.664 449.225 463.266 449.056 462.501 448.98L460.803 448.827C458.967 448.674 458.003 448.016 458.003 446.639C458.003 445.124 459.533 444.038 461.813 444.038C464.291 444.038 465.638 445.048 465.76 446.593H463.527C463.328 445.92 462.792 445.629 461.859 445.629C460.926 445.629 460.329 445.935 460.329 446.44C460.329 446.869 460.62 447.052 461.431 447.129L463.052 447.282C465.148 447.481 465.99 448.2 465.99 449.531C465.99 450.892 464.613 452.147 461.951 452.147ZM471.967 452.147C470.284 452.147 468.357 451.458 468.357 448.827V446.134H466.628V444.206H468.51V442.462H470.713V444.206H473.528V446.134H470.713V448.444C470.713 449.76 471.539 450.127 472.411 450.127C472.747 450.127 473.13 450.066 473.543 449.883V451.871C473.038 452.055 472.503 452.147 471.967 452.147Z" fill="black"/>
</svg>
